<svg width="20" height="20" viewBox="0 0 20 20" fill="none" xmlns="http://www.w3.org/2000/svg">
<g clip-path="url(#clip0)">
<path d="M19.6641 8.94079L10.6907 0.764316C10.2969 0.405371 9.70292 0.40541 9.30921 0.764277L0.33583 8.94082C0.0203227 9.22832 -0.0838958 9.67129 0.0702445 10.0693C0.224424 10.4673 0.599814 10.7245 1.02665 10.7245H2.45985V18.9167C2.45985 19.2415 2.72321 19.5048 3.04801 19.5048H7.96652C8.29132 19.5048 8.55468 19.2415 8.55468 18.9167V13.9426H11.4454V18.9167C11.4454 19.2415 11.7087 19.5049 12.0335 19.5049H16.9518C17.2766 19.5049 17.54 19.2415 17.54 18.9167V10.7245H18.9734C19.4002 10.7245 19.7757 10.4673 19.9299 10.0693C20.0838 9.67125 19.9796 9.22832 19.6641 8.94079Z" fill="#6D747A"/>
<path d="M17.3865 1.66913H13.4365L17.9746 5.79553V2.25725C17.9746 1.93245 17.7113 1.66913 17.3865 1.66913Z" fill="#6D747A"/>
</g>
<defs>
<clipPath id="clip0">
<rect width="20" height="20" fill="white"/>
</clipPath>
</defs>
</svg>
