<svg width="328" height="237" viewBox="0 0 328 237" fill="none" xmlns="http://www.w3.org/2000/svg">
<path opacity="0.33" d="M327.814 141.037C325.044 163.199 309.038 159.505 306.514 185.299C305.591 194.472 312.424 200.259 315.81 208.262C319.565 217.065 318.211 224.945 313.163 230.978H34.9674C28.8113 228.207 22.963 225.253 17.8534 221.744C10.8354 216.88 5.23332 210.909 2.4015 202.66C-0.184073 195.211 -2.15403 188.07 4.6177 182.467C8.24981 179.389 12.0666 177.05 15.3909 174.218C17.8534 172.064 20.0696 169.663 21.7317 166.523C33.8593 143.253 18.2843 122.753 12.5591 99.4829C12.0051 97.2052 11.5126 94.9274 11.0816 92.6497C10.0351 86.8013 9.5426 80.8915 10.1582 75.1047C10.7123 69.8104 12.1897 64.6393 15.0216 59.7759C19.2693 52.5117 30.2272 41.7385 42.0469 43.77C50.9118 45.3091 56.5138 53.8045 64.5168 56.8826C74.6128 60.7609 85.817 57.6829 93.389 51.9577C108.102 40.8766 117.521 19.8227 142.638 21.7311C151.133 22.4083 156.92 29.1184 164.369 32.1965C174.65 36.4442 184.807 36.3827 194.596 32.2581C205.861 27.5179 213.618 18.653 224.699 13.605C228.331 11.9429 232.271 10.527 236.396 9.41885C245.322 7.01796 255.049 6.1561 264.283 8.00294C266.253 8.37231 268.1 8.8648 269.824 9.41885C300.604 18.8993 302.02 49.9261 300.604 72.5191C299.927 82.8614 291.616 100.776 297.772 111.487C304.052 122.199 330.461 119.613 327.814 141.037Z" fill="#B8E5FF"/>
<path d="M54.5438 230.978H51.9582L51.5889 219.527H58.1759L54.5438 230.978Z" fill="#B8E5FF"/>
<path d="M102.931 230.978H105.517L105.824 219.527H99.2988L102.931 230.978Z" fill="#B8E5FF"/>
<path d="M109.21 108.656H48.203V220.882H109.21V108.656Z" fill="#94D5FF"/>
<path d="M104.101 117.089H53.3742V139.128H104.101V117.089Z" fill="#B8E5FF"/>
<path d="M78.7375 131.495C80.6074 131.495 82.1233 129.979 82.1233 128.109C82.1233 126.239 80.6074 124.723 78.7375 124.723C76.8675 124.723 75.3516 126.239 75.3516 128.109C75.3516 129.979 76.8675 131.495 78.7375 131.495Z" fill="#94D5FF"/>
<path d="M104.101 141.529H53.3742V163.568H104.101V141.529Z" fill="#B8E5FF"/>
<path d="M78.7375 155.935C80.6074 155.935 82.1233 154.419 82.1233 152.549C82.1233 150.679 80.6074 149.163 78.7375 149.163C76.8675 149.163 75.3516 150.679 75.3516 152.549C75.3516 154.419 76.8675 155.935 78.7375 155.935Z" fill="#94D5FF"/>
<path d="M104.101 165.907H53.3742V187.946H104.101V165.907Z" fill="#B8E5FF"/>
<path d="M78.7375 180.313C80.6074 180.313 82.1233 178.797 82.1233 176.927C82.1233 175.057 80.6074 173.541 78.7375 173.541C76.8675 173.541 75.3516 175.057 75.3516 176.927C75.3516 178.797 76.8675 180.313 78.7375 180.313Z" fill="#94D5FF"/>
<path d="M104.101 190.347H53.3742V212.386H104.101V190.347Z" fill="#B8E5FF"/>
<path d="M78.7375 204.753C80.6074 204.753 82.1233 203.237 82.1233 201.367C82.1233 199.497 80.6074 197.981 78.7375 197.981C76.8675 197.981 75.3516 199.497 75.3516 201.367C75.3516 203.237 76.8675 204.753 78.7375 204.753Z" fill="#94D5FF"/>
<path d="M111.057 106.809H46.4178V111.056H111.057V106.809Z" fill="#B8E5FF"/>
<path d="M70.4882 32.2581C69.7495 30.2266 71.2885 27.641 73.2585 26.2866C74.6128 25.4248 76.1519 24.8707 76.9522 23.7011C76.8906 25.2401 76.4597 26.5329 75.4747 28.0104C74.3666 29.611 72.6429 31.2731 70.4882 32.2581Z" fill="#94D5FF"/>
<path d="M70.4883 32.9353C70.7961 31.8272 69.5649 30.7806 68.8261 30.165C68.0874 29.5494 67.2255 29.0569 66.5484 28.3182C65.1324 26.8407 65.0709 23.9473 66.6715 22.3467C66.2405 22.7161 66.9177 24.0705 67.164 24.4398C67.6565 25.2401 68.5183 25.8557 69.1955 26.5329C70.7961 28.1951 71.0423 30.5959 70.4883 32.9353Z" fill="#B8E5FF"/>
<path d="M70.9192 30.8422C70.5498 29.7956 71.5963 28.5644 72.2735 27.8872C72.9507 27.1485 73.751 26.5329 74.305 25.7326C75.5978 24.0704 75.4131 21.2386 73.6894 20.069C74.1819 20.3768 73.5663 21.7927 73.3816 22.162C72.9507 23.0239 72.2119 23.7626 71.5963 24.5014C70.1804 26.2866 70.1189 28.6875 70.9192 30.8422Z" fill="#B8E5FF"/>
<path d="M70.3036 30.5344C69.9342 30.4728 69.5648 29.9803 69.3802 29.7341C69.0724 29.2416 68.8261 28.6875 68.7645 28.1335C68.5183 26.7176 68.9492 25.3017 69.0108 23.8857C69.0723 22.7776 69.0108 21.7311 68.6414 20.7461C68.4567 20.2536 68.1489 19.8227 67.8411 19.3918C67.8411 19.3302 68.2721 19.5149 68.3336 19.5149C71.227 20.8077 71.8426 23.5164 71.2885 26.2251C71.1039 27.0869 70.9807 27.9488 70.7345 28.8106C70.5498 29.3031 70.1805 29.9803 70.3036 30.5344Z" fill="#94D5FF"/>
<path d="M74.3051 37.7986H68.3336L66.4252 31.5809H76.275L74.3051 37.7986Z" fill="#B8E5FF"/>
<path d="M74.6128 38.2911H68.0258V37.3061H74.6128V38.2911Z" fill="#94D5FF"/>
<path d="M76.3981 32.3196H66.1789L65.9942 30.3497H76.6443L76.3981 32.3196Z" fill="#94D5FF"/>
<path d="M111.365 26.3482L112.104 27.7641C112.35 28.3181 112.904 28.6875 113.458 28.7491L115.059 28.9953C116.536 29.2415 117.152 31.0268 116.044 32.0734L114.874 33.1815C114.443 33.6124 114.258 34.228 114.32 34.7821L114.566 36.3826C114.812 37.8601 113.273 39.0298 111.919 38.291L110.503 37.5523C109.949 37.2445 109.333 37.2445 108.779 37.5523L107.363 38.291C106.009 38.9682 104.47 37.8601 104.716 36.3826L104.963 34.7821C105.086 34.1664 104.839 33.6124 104.409 33.1815L103.239 32.0734C102.131 31.0268 102.746 29.18 104.224 28.9953L105.824 28.7491C106.44 28.6875 106.933 28.3181 107.179 27.7641L107.918 26.3482C108.718 24.9938 110.688 24.9938 111.365 26.3482Z" fill="#94D5FF"/>
<path d="M94.3124 14.3438H87.787V38.4142H94.3124V14.3438Z" fill="#94D5FF"/>
<path d="M97.883 17.4834H94.1893V38.4142H97.883V17.4834Z" fill="#50BCFF"/>
<path d="M87.9101 22.8392H82.4311V38.4757H87.9101V22.8392Z" fill="#B8E5FF"/>
<path opacity="0.68" d="M87.9101 25.1785H82.4311V26.9638H87.9101V25.1785Z" fill="#94D5FF"/>
<path opacity="0.68" d="M87.9101 34.7205H82.4311V36.5058H87.9101V34.7205Z" fill="#94D5FF"/>
<path d="M102.192 16.129H97.5752V38.4142H102.192V16.129Z" fill="#94D5FF"/>
<path d="M100.961 22.9007H98.8064V32.8737H100.961V22.9007Z" fill="#B8E5FF"/>
<path d="M106.955 53.0291H110.833V43.6718H106.955V53.0291Z" fill="#94D5FF"/>
<path d="M104.492 45.5171H113.357V42.8084H104.492V45.5171Z" fill="#94D5FF"/>
<path d="M68.5878 53.0292H72.4662V43.6718H68.5878V53.0292Z" fill="#94D5FF"/>
<path d="M66.0638 45.5171H74.9286V42.8085H66.0638V45.5171Z" fill="#94D5FF"/>
<path d="M59.5148 43.2763L119.968 43.2763V38.2283L59.5148 38.2283V43.2763Z" fill="#B8E5FF"/>
<path d="M42.3548 67.5327H38.4149C38.2917 67.5327 38.1686 67.5942 38.1071 67.7789L31.0891 79.5986C31.0275 79.8449 31.2122 80.1527 31.4584 80.1527H38.2917C38.4149 80.1527 38.538 80.0911 38.5995 79.9065L42.7242 68.0867C42.7857 67.7789 42.601 67.5327 42.3548 67.5327Z" fill="#94D5FF"/>
<path d="M34.7212 62.7924H55.3442L58.176 80.1527H37.4914L34.7212 62.7924Z" fill="#50BCFF"/>
<path d="M35.3984 62.7924H56.0829L58.8532 80.1527H38.2302L35.3984 62.7924Z" fill="#94D5FF"/>
<path d="M37.3068 64.393H54.7286L57.0064 78.5521H39.5845L37.3068 64.393Z" fill="white"/>
<path d="M40.2001 67.1017H52.697L54.0514 75.8434H41.616L40.2001 67.1017Z" fill="#94D5FF"/>
<path d="M73.751 74.1812C73.751 76.3974 72.5198 78.3674 70.6729 79.2908C70.6114 79.2908 70.6114 79.3524 70.5498 79.3524C69.7495 79.7217 68.8876 79.968 67.9642 79.968C66.1789 79.968 64.5784 79.1677 63.4703 77.8749C63.4087 77.7518 63.2856 77.6902 63.224 77.5671C62.5468 76.6437 62.1159 75.474 62.1159 74.1812C62.1159 71.2879 64.209 68.887 66.9792 68.456C67.0408 68.456 67.1639 68.3945 67.2255 68.3945C67.4102 68.3945 67.6564 68.3329 67.9027 68.3329C70.796 68.3329 73.2585 70.4876 73.6279 73.3194C73.6279 73.4425 73.6894 73.5656 73.6894 73.6887C73.751 73.8119 73.751 73.9966 73.751 74.1812Z" fill="#94D5FF"/>
<path d="M66.9793 74.5506C66.4252 75.474 65.7481 76.2743 64.9478 76.9515C64.5168 77.3208 64.0859 77.6286 63.5319 77.8133C63.4703 77.6902 63.3472 77.6286 63.2856 77.5055C64.0243 77.1977 64.64 76.7052 65.194 76.1512C65.9943 75.3509 66.6715 74.489 67.1024 73.504C67.5949 72.4575 67.8411 71.2878 67.6565 70.1182C67.5949 69.6257 67.4102 69.0716 67.164 68.6407C67.1024 68.5791 67.1024 68.5176 67.0409 68.456C67.1024 68.456 67.2255 68.3945 67.2871 68.3945C67.3487 68.5176 67.4102 68.6407 67.4718 68.7023C68.3952 70.6107 68.0258 72.8269 66.9793 74.5506Z" fill="#B8E5FF"/>
<path d="M73.751 73.6887C73.5047 73.8734 73.2585 74.0581 73.0122 74.3044C71.6579 75.5971 70.796 77.444 70.6113 79.2908C70.5498 79.2908 70.5498 79.3524 70.4882 79.3524C70.5498 77.3824 71.3501 75.474 72.766 74.0581C73.0122 73.8119 73.32 73.5656 73.6278 73.3194C73.751 73.4425 73.751 73.5656 73.751 73.6887Z" fill="#B8E5FF"/>
<path d="M70.421 94.4788H74.2993V85.1215H70.421V94.4788Z" fill="#94D5FF"/>
<path d="M67.9586 86.9667H76.8234V84.258H67.9586V86.9667Z" fill="#94D5FF"/>
<path d="M31.9923 94.4788H35.8707V85.1215H31.9923V94.4788Z" fill="#94D5FF"/>
<path d="M29.53 86.9667H38.3948V84.258H29.53V86.9667Z" fill="#94D5FF"/>
<path d="M22.9809 84.7259L83.434 84.7259V79.6779H22.9809V84.7259Z" fill="#B8E5FF"/>
<path d="M283.675 204.199C291.631 204.199 298.08 198.08 298.08 190.532C298.08 182.984 291.631 176.865 283.675 176.865C275.719 176.865 269.269 182.984 269.269 190.532C269.269 198.08 275.719 204.199 283.675 204.199Z" fill="#94D5FF"/>
<path d="M297.649 192.317H269.885L271.239 230.978H296.233L297.649 192.317Z" fill="#B8E5FF"/>
<path d="M299.865 189.978H268.346V194.964H299.865V189.978Z" fill="#94D5FF"/>
<path d="M279.55 179.82C278.811 181.606 278.196 183.452 277.765 185.361C277.457 186.9 277.272 188.439 277.149 189.978H298.019C297.772 184.868 294.571 180.436 290.016 178.281C288.292 178.651 286.568 178.958 284.783 179.266C283.059 179.512 281.336 179.759 279.55 179.82Z" fill="#B8E5FF"/>
<path d="M230.055 0H136.297V62.0537H230.055V0Z" fill="#FFD900"/>
<path d="M154.027 61.0687C153.965 61.315 154.273 76.2128 154.273 76.2128L162.276 61.1919L154.027 61.0687Z" fill="#FFD900"/>
<path d="M227.716 2.70865H138.698V59.345H227.716V2.70865Z" fill="white"/>
<path opacity="0.4" d="M227.716 49.0643H152.365C151.38 49.0643 150.518 48.264 150.518 47.2174V2.70865H227.654V49.0643H227.716Z" fill="#50BCFF"/>
<path opacity="0.83" d="M227.716 45.3706H156.736C156.182 45.3706 155.689 44.8781 155.689 44.324V2.70865H227.716V45.3706Z" fill="white"/>
<g opacity="0.36">
<path opacity="0.36" d="M222.237 14.4669C221.375 13.6666 219.651 13.9129 218.481 13.9129C215.034 13.8513 211.587 13.7897 208.139 13.7897C207.954 13.7897 207.77 13.9129 207.77 14.0975C207.77 16.56 207.831 19.0224 208.016 21.4849C206.6 19.7612 205.061 18.0375 203.214 16.56C203.091 16.4984 202.906 16.56 203.03 16.6831C204.753 18.5915 206.539 20.4999 208.139 22.5314C208.324 22.7161 208.755 22.6546 208.755 22.4083C208.57 19.7612 208.447 17.0525 208.509 14.4053C211.279 14.4053 213.987 14.4669 216.758 14.5285C218.112 14.5285 219.466 14.5285 220.821 14.6516C222.36 14.7747 221.99 15.9444 222.36 16.8062C222.421 16.9909 222.729 16.9909 222.791 16.8062C223.099 16.0675 222.914 15.021 222.237 14.4669Z" fill="#0A61B7"/>
<path opacity="0.36" d="M221.744 19.5765C221.313 20.0074 220.759 20.8692 219.959 20.6846C219.466 20.5614 219.343 20.0074 219.22 19.6996C219.036 19.3302 218.912 18.9608 218.728 18.5915C218.666 18.4068 218.297 18.3452 218.174 18.5299C217.927 18.8993 217.681 19.2071 217.373 19.5149C217.189 19.7611 216.635 20.3768 216.204 20.2536C215.834 20.1305 215.711 19.5765 215.711 19.2687C215.957 18.8377 216.081 18.3452 215.957 17.8527C215.896 17.6681 215.527 17.6065 215.403 17.7912C215.157 18.2221 215.034 18.7146 215.096 19.2071C215.034 19.3302 214.911 19.5149 214.788 19.638C214.418 20.0689 213.864 20.6846 213.249 20.8692C212.387 21.1155 211.894 20.4383 211.71 19.8843C211.587 19.5765 211.34 18.4068 211.894 18.3452C212.079 18.3452 212.018 18.099 211.833 18.099C211.71 18.099 211.648 18.099 211.525 18.099C211.463 18.099 211.402 18.099 211.34 18.1606C210.909 18.8377 210.909 19.638 211.217 20.3152C211.525 20.9308 212.141 21.4849 213.064 21.4233C213.926 21.3002 214.665 20.623 215.157 20.0689C215.219 20.0074 215.219 19.9458 215.28 19.9458C215.403 20.2536 215.588 20.5614 215.896 20.6846C216.881 21.1771 217.866 20.0074 218.42 19.2071C218.605 19.5765 218.789 20.0074 218.974 20.3768C219.159 20.7461 219.466 21.0539 219.959 21.1155C221.067 21.3002 221.867 20.4383 221.99 19.638C221.99 19.5765 221.806 19.4533 221.744 19.5765Z" fill="#0A61B7"/>
<path opacity="0.36" d="M226.669 12.9278C226.546 12.8047 226.361 12.8047 226.177 12.8047C225.992 12.8047 225.807 12.7431 225.623 12.6816C225.376 12.62 225.13 12.4353 225.069 12.1891C225.069 11.9428 224.638 11.9428 224.638 12.1891V12.2506C224.699 12.5584 224.699 12.8662 224.576 13.1741C224.515 13.2972 224.453 13.4819 224.33 13.605C224.268 13.7281 224.022 13.9128 223.899 13.9128C223.714 13.9128 223.714 13.7281 223.714 13.605C223.653 13.3587 223.653 13.174 223.653 12.9278C223.653 12.4969 223.653 12.0659 223.776 11.635C223.776 11.5735 223.591 11.5119 223.591 11.635C223.468 12.0659 223.468 12.4353 223.406 12.8662C223.406 13.0509 223.406 13.2972 223.406 13.4819C223.406 13.605 223.406 13.7897 223.53 13.9128C223.591 14.0359 223.714 14.159 223.837 14.159C224.022 14.2206 224.207 14.0975 224.391 13.9743C224.638 13.7897 224.822 13.5434 224.945 13.2356C225.007 13.1125 225.007 12.9894 225.069 12.8662C225.13 12.9278 225.253 12.9894 225.315 12.9894C225.499 13.1125 225.746 13.1125 225.992 13.1741C226.238 13.2356 226.484 13.2356 226.669 13.1125C226.731 12.9894 226.731 12.9278 226.669 12.9278Z" fill="#0A61B7"/>
<path opacity="0.36" d="M202.045 32.6274C201.86 32.8121 201.429 32.8737 201.183 32.689C200.875 32.5043 200.69 32.1349 200.567 31.8887C200.506 31.704 200.198 31.6424 200.013 31.8271C199.767 32.1349 199.459 32.5043 199.213 32.8121C199.09 32.9352 198.474 33.7971 198.413 33.3046C198.289 32.5043 198.474 31.6424 198.659 30.9037C198.72 30.5959 198.228 30.4728 198.105 30.7806C197.92 31.4577 197.612 32.1349 197.058 32.689C196.689 33.1199 195.827 34.0433 195.027 33.8586C194.596 33.7355 194.473 33.3046 194.411 32.9968C194.349 32.6274 194.288 32.1965 194.349 31.8271C194.411 31.0268 194.657 30.2881 195.088 29.5493C195.211 29.3647 194.842 29.18 194.719 29.3647C194.165 30.165 193.857 31.0884 193.857 32.0118C193.857 32.689 193.795 33.9202 194.719 34.228C195.642 34.5358 196.627 33.7355 197.12 33.243C197.366 33.0583 197.551 32.8121 197.735 32.5659C197.735 32.9352 197.551 33.6124 198.043 33.9202C198.474 34.1664 198.967 33.9202 199.213 33.674C199.582 33.3046 199.828 32.9352 200.136 32.5659C200.321 32.9352 200.629 33.243 201.06 33.3661C201.614 33.4893 202.168 33.3661 202.352 32.8737C202.476 32.6274 202.168 32.5043 202.045 32.6274Z" fill="#0A61B7"/>
<path opacity="0.36" d="M207.524 33.4893C207.462 33.3662 207.277 33.243 207.093 33.1199C206.97 32.9968 206.785 32.8737 206.662 32.7506C206.6 32.689 206.539 32.6274 206.477 32.6274C206.539 32.5043 206.539 32.4427 206.6 32.3196C206.846 31.704 207.031 31.0884 207.031 30.4728C207.031 30.2881 206.785 30.2881 206.723 30.4728C206.662 31.0884 206.415 31.704 206.108 32.2581C206.108 32.2581 206.108 32.3196 206.046 32.3196C205.923 32.2581 205.8 32.1349 205.738 32.0734L203.891 30.6575C203.707 30.5344 203.461 30.719 203.584 30.9037C204.138 31.3962 204.753 31.9503 205.307 32.4427C205.43 32.5659 205.615 32.689 205.8 32.8737C205.738 32.9352 205.677 33.0584 205.677 33.1199C205.492 33.4277 205.307 33.7355 205.184 34.0433C205.061 34.2896 205.554 34.4743 205.738 34.228C205.923 33.9202 206.046 33.6124 206.231 33.3046C206.231 33.3046 206.231 33.243 206.292 33.243L206.723 33.6124C206.846 33.7355 207.031 33.9202 207.216 33.9818C207.462 33.9202 207.647 33.674 207.524 33.4893Z" fill="#0A61B7"/>
<path opacity="0.36" d="M223.222 30.8422C223.16 30.7191 222.975 30.7806 222.975 30.9038C222.914 31.3962 222.544 32.0119 221.867 32.135C221.129 32.2581 220.451 31.704 220.451 31.0884C220.451 30.7806 219.836 30.6575 219.774 31.0269C219.59 31.5809 219.343 32.4428 218.543 32.5043C217.373 32.5659 217.189 31.3347 217.25 30.5959C217.312 30.2881 216.696 30.2266 216.635 30.5344C216.45 31.3347 215.834 32.135 214.911 32.4428C213.495 32.8737 213.31 31.3962 213.372 30.6575C213.372 30.4113 212.879 30.3497 212.818 30.5959V30.6575C212.756 30.8422 212.756 30.9653 212.756 31.15C212.695 31.5194 212.51 31.9503 212.141 32.135C212.018 32.1965 211.71 32.3197 211.648 32.1965C211.525 32.135 211.587 31.8272 211.587 31.704C211.587 31.3347 211.771 31.0269 211.956 30.7191C212.018 30.5959 211.833 30.4728 211.71 30.5959C211.34 30.9653 210.602 32.6275 211.71 32.689C212.202 32.7506 212.633 32.2581 212.879 31.9503L212.941 31.8887C213.187 32.5043 213.68 32.9968 214.542 32.9353C215.526 32.8737 216.204 32.3197 216.696 31.6425C216.881 32.3197 217.373 32.8737 218.297 32.9353C219.22 32.9968 219.713 32.5043 220.082 31.8887C220.451 32.3812 221.129 32.689 221.929 32.5659C222.975 32.5659 223.837 31.6425 223.222 30.8422Z" fill="#0A61B7"/>
<path opacity="0.36" d="M190.225 5.35582C190.163 5.23269 189.979 5.17113 189.855 5.23269C185.362 7.4489 180.868 9.60354 176.497 11.9429C176.312 11.8197 176.189 11.6966 176.004 11.6351C175.943 11.6351 175.82 11.6351 175.82 11.6966C175.758 11.8197 175.758 11.8813 175.82 12.0044C175.881 12.066 176.004 12.0044 175.943 11.9429C176.004 12.0044 176.066 12.066 176.189 12.1276C175.758 12.3738 175.389 12.5585 174.958 12.8047C174.835 12.8663 174.958 12.9894 175.081 12.9278C175.512 12.7432 175.943 12.4969 176.374 12.3122C176.558 12.4354 176.743 12.62 176.866 12.8047C177.174 13.1741 177.359 13.5435 177.543 13.9128C177.666 14.1591 177.728 14.4669 177.789 14.7747C175.943 14.6516 174.096 14.4669 172.249 14.2822C172.003 14.2822 171.941 14.6516 172.187 14.6516C174.034 14.9594 175.943 15.1441 177.851 15.2056C177.851 15.5134 177.728 15.7597 177.42 16.0059C177.359 16.0675 177.359 16.129 177.482 16.129C177.974 16.2522 178.22 15.7597 178.282 15.4519C178.282 15.3903 178.282 15.3287 178.282 15.2672C182.653 15.5134 187.085 15.3287 191.395 14.8362C191.518 14.8362 191.579 14.7131 191.579 14.6516C191.456 11.4504 191.087 8.37232 190.225 5.35582ZM181.606 14.8978C180.498 14.8978 179.329 14.8362 178.22 14.7747C178.159 14.5284 178.097 14.2822 178.036 14.0359C177.851 13.5435 177.605 13.1125 177.235 12.6816C177.051 12.4969 176.866 12.3122 176.681 12.1276C181.052 10.0345 185.362 7.81826 189.794 5.78674C190.471 8.61856 190.902 11.5119 190.964 14.4053C187.886 14.7131 184.746 14.8978 181.606 14.8978Z" fill="#0A61B7"/>
<path opacity="0.36" d="M196.812 8.24919C196.504 8.24919 196.258 8.37231 195.95 8.49544C195.642 8.61856 195.396 8.68012 195.15 8.80324C194.596 9.04949 193.98 9.23417 193.488 9.48042C193.426 9.54198 193.426 9.6651 193.549 9.60354C194.165 9.48041 194.719 9.23417 195.273 9.04949C195.581 8.92637 195.827 8.86481 196.073 8.74168C196.319 8.61856 196.689 8.557 196.874 8.37231C196.874 8.31075 196.874 8.24919 196.812 8.24919Z" fill="#0A61B7"/>
<path opacity="0.36" d="M198.967 7.26422C198.782 7.1411 198.536 7.20266 198.289 7.20266C197.982 7.20266 197.735 7.26422 197.428 7.26422C197.12 7.26422 196.873 7.32578 196.566 7.32578C196.443 7.32578 196.258 7.32578 196.135 7.38734C196.012 7.38734 195.827 7.44891 195.704 7.51047C195.581 7.57203 195.642 7.69515 195.704 7.69515C195.827 7.75671 195.95 7.69515 196.012 7.69515C196.135 7.69515 196.258 7.69515 196.381 7.69515C196.627 7.69515 196.873 7.63359 197.12 7.63359L197.858 7.57203C198.105 7.57203 198.289 7.51047 198.536 7.51047C198.536 7.57203 198.474 7.63359 198.412 7.69515C198.351 7.87983 198.228 8.00296 198.105 8.12608C197.982 8.2492 197.858 8.37232 197.735 8.55701C197.674 8.61857 197.612 8.68013 197.551 8.74169C197.489 8.80325 197.428 8.86481 197.428 8.98793C197.366 9.11106 197.551 9.17262 197.674 9.17262C197.92 9.0495 198.043 8.92638 198.228 8.74169C198.351 8.55701 198.536 8.43388 198.659 8.2492C198.782 8.06452 198.905 7.87983 198.967 7.69515C199.151 7.63359 199.213 7.38734 198.967 7.26422Z" fill="#0A61B7"/>
<path opacity="0.36" d="M211.279 6.40233C211.094 6.34077 210.848 6.34077 210.663 6.27921C210.417 6.21765 210.232 6.15609 209.986 6.09453C209.74 6.03297 209.494 6.03296 209.247 6.15609C209.001 6.27921 208.878 6.52546 208.693 6.71014C208.201 7.14107 207.77 6.64858 207.524 6.27921C207.4 6.09453 207.093 6.15609 207.031 6.40233C207.031 6.7717 206.539 6.83326 206.231 6.71014C205.923 6.58702 205.8 6.27921 205.8 6.03297C205.8 5.84828 205.492 5.78672 205.369 5.90984C205.061 6.27921 204.692 6.64858 204.261 6.95638C203.953 7.20263 203.584 7.01795 203.461 6.71014C203.337 6.46389 203.399 6.21765 203.461 5.90984C203.522 5.6636 203.153 5.60204 203.03 5.78672C202.907 6.21765 202.66 6.58701 202.229 6.83326C201.922 7.01794 201.367 7.20263 201.183 6.83326C200.998 6.58701 200.998 6.21765 201.06 5.90984C201.06 5.84828 200.998 5.84828 200.998 5.90984C200.875 6.27921 200.629 6.58702 200.875 6.95638C201.06 7.20263 201.367 7.38731 201.737 7.38731C202.229 7.32575 202.722 7.07951 203.03 6.71014C203.153 7.07951 203.399 7.38731 203.83 7.44887C204.507 7.57199 205.123 6.95638 205.492 6.40233C205.677 6.71014 205.923 7.01794 206.415 7.07951C206.785 7.14107 207.154 6.95638 207.4 6.71014C207.831 7.14107 208.385 7.51044 209.001 7.01795C209.309 6.7717 209.494 6.27921 209.986 6.46389C210.479 6.64858 210.848 6.7717 211.34 6.52545C211.402 6.58701 211.402 6.40233 211.279 6.40233Z" fill="#0A61B7"/>
<path opacity="0.36" d="M212.141 8.98793C211.771 8.8648 211.279 8.98793 210.909 8.86481C210.479 8.80324 210.048 8.68012 209.617 8.61856C209.186 8.557 208.816 8.61856 208.447 8.80325C208.201 8.92637 207.339 9.48042 207.216 8.98793C207.154 8.80324 206.908 8.80324 206.785 8.86481C206.354 9.17261 205.861 9.48042 205.307 9.48042C204.815 9.41886 204.322 8.92637 204.815 8.61856C205 8.49544 204.753 8.18763 204.569 8.31075C203.953 8.68012 204.076 9.41886 204.692 9.72666C205.43 10.096 206.231 9.78823 206.908 9.3573C207.093 9.54198 207.4 9.60354 207.708 9.60354C208.324 9.54198 208.693 9.11105 209.247 9.04949C209.801 8.98793 210.355 9.23417 210.909 9.29573C211.34 9.35729 211.956 9.48042 212.264 9.11105C212.325 9.11105 212.264 8.98793 212.141 8.98793Z" fill="#0A61B7"/>
</g>
<path d="M199.028 59.2835H155.874C156.489 56.0207 158.829 45.4322 162.338 43.0313C165.231 41.0613 168.74 39.3376 173.542 38.722C173.85 38.6605 174.157 38.6605 174.527 38.5989C174.958 38.5373 175.389 38.5373 175.881 38.4758C177.235 38.4142 178.651 38.4142 180.19 38.5373H180.252C180.56 38.5373 180.868 38.5989 181.175 38.5989C181.483 38.5989 181.729 38.6605 182.037 38.722C189.671 39.7686 196.319 44.3241 197.612 50.7265C197.797 51.7114 197.982 52.5733 198.105 53.3736C198.659 56.5748 198.905 58.4216 199.028 59.2835Z" fill="#0A61B7"/>
<path d="M184.746 59.2835H173.911C173.603 56.3901 172.865 47.2175 172.803 45.6169C172.618 42.231 172.742 40.4457 173.48 39.5839C173.727 39.2761 174.096 39.0298 174.527 38.9067C175.019 38.7836 175.573 38.722 176.312 38.7836C176.866 38.7836 177.543 38.8452 178.282 38.9067C178.651 38.9067 179.021 38.9683 179.329 39.0298C180.067 39.0914 180.683 39.2145 181.175 39.3376C181.729 39.4608 182.16 39.6454 182.468 39.8917C183.33 40.5073 183.515 41.4923 183.761 43.0313C184.13 45.4938 184.684 56.267 184.746 59.2835Z" fill="#50BCFF"/>
<path d="M181.668 32.689H173.85V39.6454H181.668V32.689Z" fill="#E79F8B"/>
<path d="M199.891 33.9202C199.768 31.3962 200.137 28.7491 201.43 26.5329C201.738 26.0404 202.353 25.4863 202.784 25.9173C202.969 26.102 202.969 26.3482 202.969 26.656C203.031 28.626 202.846 30.5959 202.415 32.5043C202.723 31.8272 203.585 31.5193 204.262 31.704C204.939 31.9503 205.431 32.689 205.37 33.3662C205.555 32.6274 206.663 32.5659 207.217 33.0584C207.771 33.6124 207.832 34.4127 207.832 35.1515C208.079 34.7821 208.756 34.9052 209.002 35.213C209.31 35.5824 209.31 36.0749 209.31 36.5058C209.31 37.9217 209.002 39.3376 208.263 40.5688C207.525 41.7385 206.293 42.6619 204.877 42.8466C200.507 43.3391 200.076 36.9367 199.891 33.9202Z" fill="#E79F8B"/>
<path d="M201.798 41.3691C201.798 41.3691 198.105 39.2761 199.398 36.9367C200.69 34.5974 204.446 35.8286 203.645 37.183C202.845 38.5373 201.06 38.2911 201.06 38.2911L201.798 41.3691Z" fill="#E79F8B"/>
<path d="M173.603 37.7371C174.034 37.6755 176.066 39.2145 178.221 39.153C180.375 39.0298 181.483 38.0449 181.791 37.7371C182.099 37.4292 183.884 40.9382 183.638 41.3692C183.392 41.7385 182.591 43.2776 181.791 43.0313C180.991 42.7235 178.775 40.0764 178.775 40.0764C178.775 40.0764 176.743 43.3391 176.004 43.3391C175.266 43.3391 172.803 42.231 172.68 40.4458C172.434 38.5374 173.049 37.7986 173.603 37.7371Z" fill="white"/>
<path d="M208.94 41.3691L208.755 59.2834H196.997L198.043 53.4351L200.259 41.1229L201.429 41.1844H201.552H201.737L207.77 41.3691H208.94Z" fill="#0A61B7"/>
<path d="M186.654 13.9744C186.408 13.7898 186.162 13.8513 185.916 14.0976C185.669 14.3438 185.423 14.7132 185.362 15.021C185.054 16.0675 185.177 17.2372 185.362 18.2222C185.546 19.1456 185.793 20.069 186.223 20.8693C186.223 20.9309 186.285 20.9309 186.285 20.9924C186.47 21.3618 186.716 21.6696 187.024 21.9774C187.085 21.9774 187.147 22.039 187.208 22.039C187.393 22.039 187.578 21.9158 187.763 21.7311C188.809 20.7462 188.563 19.084 188.378 17.9759C188.132 16.6216 187.639 15.3288 186.901 14.2207C186.839 14.0976 186.778 14.036 186.654 13.9744Z" fill="#0A61B7"/>
<path d="M188.07 23.0239C188.07 29.7341 187.024 35.4593 180.006 35.8902C170.956 36.4443 167.263 29.6725 167.263 23.0239C167.263 16.3753 171.941 10.8963 177.666 10.8963C183.392 10.8963 188.07 16.3137 188.07 23.0239Z" fill="#E79F8B"/>
<path d="M176.989 29.1185C177.236 28.6876 178.651 28.7491 180.314 28.5644C182.16 28.3797 183.453 28.0104 183.823 28.1951C184.438 28.5644 183.145 31.2731 180.745 31.4578C179.021 31.6425 176.558 29.9188 176.989 29.1185Z" fill="white"/>
<path d="M175.266 14.4054C177.174 15.575 179.082 16.7447 181.175 17.6065C183.515 18.5915 186.1 18.8993 188.317 17.2987C188.809 16.9294 189.425 16.1906 188.686 15.7597C188.193 15.5135 187.516 15.575 186.962 15.5135C187.578 15.575 188.255 15.4519 188.747 15.021C189.24 14.6516 189.548 13.9744 189.363 13.3588C189.24 12.9279 188.932 12.5585 188.563 12.3123C187.455 11.4504 186.1 11.081 184.746 10.7732C184.5 10.7117 184.253 10.7117 184.007 10.6501C184.192 10.4039 184.377 10.0961 184.315 9.78826C184.253 9.48046 183.946 9.23421 183.638 9.04953C181.299 7.63362 178.344 7.5105 175.573 7.5105C173.603 7.5105 171.572 7.57206 169.787 8.43392C168.986 8.86485 168.124 9.54202 168.063 10.4039C166.154 10.527 164.492 12.0045 163.877 13.7282C163.261 15.4519 163.446 17.4219 164.123 19.084C164.8 20.7462 165.6 22.7161 166.216 23.0855C166.832 23.4549 166.893 23.0239 167.632 23.3933C168.371 23.7627 168.432 24.8092 168.986 24.8708C169.54 24.9323 169.54 23.3933 169.725 22.6546C170.033 21.1771 170.033 19.6996 170.402 18.2837C170.833 16.7447 171.695 15.2672 172.865 14.0975C173.049 13.9129 173.296 13.7282 173.542 13.6051C173.603 13.6051 174.219 13.7282 174.342 13.7897C174.711 13.9129 175.019 14.0976 175.327 14.2822C175.204 14.4054 175.266 14.4054 175.266 14.4054Z" fill="#0A61B7"/>
<path d="M167.324 23.4549C166.585 22.1005 165.416 21.1771 164.369 22.1005C164 22.4083 163.815 22.9624 163.815 23.578C163.815 24.1936 163.938 24.7476 164.123 25.3017C164.615 26.656 165.477 27.8873 166.524 28.3798C166.955 28.5644 167.386 28.626 167.755 28.3182C168.186 27.8873 168.309 27.0254 168.248 26.2867C168.186 25.4248 167.878 24.3167 167.324 23.4549Z" fill="#E79F8B"/>
<path d="M164.615 23.5164C164.677 23.3933 164.862 23.2701 164.985 23.2086C165.293 23.147 165.662 23.3317 165.908 23.6395C166.154 23.9473 166.401 24.3782 166.585 24.7476C166.77 25.1785 166.955 25.6095 167.016 26.102C167.016 26.2251 166.893 26.2251 166.893 26.1635C166.708 25.4248 166.339 24.686 165.908 24.132C165.847 24.0704 165.785 23.9473 165.723 23.8858C165.662 24.2551 165.6 24.686 165.723 25.0554C165.785 25.5479 165.97 25.9173 166.216 26.3482C166.216 26.4098 166.216 26.4098 166.154 26.4098C165.6 25.7942 165.354 24.6245 165.662 23.7626C165.539 23.6395 165.416 23.5779 165.231 23.5779C164.985 23.5779 164.739 23.7626 164.677 24.0704C164.677 24.132 164.615 24.132 164.615 24.0704C164.554 23.8242 164.554 23.7011 164.615 23.5164Z" fill="#C72C19"/>
<path d="M189.117 20.1921C188.871 19.6381 188.317 19.3302 187.824 19.3302C187.208 19.3302 186.654 19.3918 186.039 19.3918C184.992 19.4534 183.946 19.4534 182.899 19.5765C182.16 19.6381 181.545 20.0074 181.483 20.8693C181.483 20.8693 181.483 20.8693 181.483 20.9308C181.175 20.7462 180.806 20.7462 180.437 20.8077C180.067 20.8693 179.76 21.1155 179.513 21.3618C179.513 21.1771 179.452 21.054 179.452 20.8693C179.329 20.0074 178.651 19.6996 177.851 19.6381C176.681 19.5765 175.512 19.6381 174.342 19.6381C173.603 19.6381 172.926 19.6381 172.187 19.6381C171.51 19.6381 170.833 20.0074 170.587 20.6846C170.464 21.054 170.402 21.4233 170.464 21.7927C170.464 21.7927 170.464 21.7927 170.402 21.7927C170.218 21.7927 170.033 21.8543 169.848 21.8543C169.54 21.9158 169.171 21.9774 168.863 21.9774C168.555 22.0389 168.186 22.1005 167.878 22.1621C167.694 22.1621 167.509 22.2236 167.386 22.2852C167.263 22.3467 167.139 22.4699 167.263 22.593C167.447 22.8392 167.878 22.7161 168.124 22.7161C168.432 22.7161 168.802 22.6546 169.109 22.6546C169.417 22.593 169.787 22.593 170.094 22.5314C170.279 22.5314 170.402 22.4699 170.587 22.4699C170.587 22.4699 170.587 22.4699 170.648 22.4699C170.833 23.6395 171.079 24.8092 171.449 25.9173C171.633 26.3482 171.818 26.7792 172.311 26.9638C172.742 27.1485 173.296 27.087 173.727 27.087C174.342 27.087 174.958 27.0254 175.512 26.9638C176.558 26.8407 177.728 26.7176 178.713 26.4098C179.698 26.102 179.76 25.2401 179.76 24.3783C179.76 23.578 179.76 22.7777 179.698 22.0389C180.006 21.8543 180.314 21.608 180.621 21.5464C180.744 21.4849 180.868 21.4849 180.991 21.4849C181.052 21.4849 181.052 21.4849 181.114 21.4849H181.175C181.175 21.4849 181.175 21.4849 181.237 21.4849C181.299 21.4849 181.36 21.5464 181.36 21.5464L181.422 21.608C181.422 21.608 181.483 21.6696 181.422 21.6696C181.422 21.608 181.422 21.7311 181.422 21.7311C181.422 21.7311 181.422 21.7927 181.422 21.7311C181.422 21.7927 181.483 21.8543 181.483 21.8543C181.483 21.8543 181.545 21.8543 181.545 21.9158C181.545 22.7161 181.606 23.5164 181.668 24.3167C181.729 25.1786 181.914 26.0404 182.838 26.1635C183.823 26.3482 184.808 26.2867 185.731 26.2251C186.223 26.2251 186.716 26.1635 187.27 26.102C187.639 26.0404 188.07 26.0404 188.378 25.7942C188.747 25.5479 188.871 25.1786 188.932 24.7476C189.178 23.6395 189.24 22.4699 189.302 21.3618C189.363 20.9924 189.301 20.5615 189.117 20.1921Z" fill="black"/>
<path d="M179.021 24.9939C178.959 25.4864 178.775 25.6711 178.282 25.7942C176.62 26.1636 174.773 26.4098 172.988 26.3482C172.372 26.3482 172.249 26.0404 172.003 25.4864C171.818 24.9939 171.695 24.563 171.572 24.0705C171.387 23.2702 171.141 22.4699 171.203 21.6696C171.264 20.6231 171.695 20.4384 172.742 20.4384C173.234 20.4384 173.727 20.4384 174.157 20.4384C175.081 20.4384 176.004 20.4384 176.928 20.4384C177.297 20.4384 177.666 20.3768 178.097 20.4384C178.528 20.4999 178.713 20.6231 178.775 21.1155C178.898 22.039 178.959 22.9624 178.959 23.8242C179.021 24.132 179.082 24.563 179.021 24.9939Z" fill="white"/>
<path d="M188.624 23.2086C188.563 23.6395 188.501 24.0705 188.378 24.5014C188.255 24.9939 188.193 25.2401 187.701 25.3633C186.223 25.6711 184.623 25.7326 183.084 25.5479C182.653 25.4864 182.407 25.3633 182.345 24.8708C182.284 24.5014 182.284 24.0705 182.284 23.6395C182.222 22.7777 182.222 21.8543 182.222 20.9924C182.222 20.5615 182.407 20.3768 182.776 20.3152C183.145 20.2537 183.453 20.2537 183.823 20.2537C184.623 20.1921 185.485 20.1305 186.285 20.1305C186.654 20.1305 187.085 20.069 187.455 20.069C188.255 20.0074 188.624 20.1305 188.748 21.054C188.871 21.7927 188.748 22.4699 188.624 23.2086Z" fill="white"/>
<path d="M147.871 54.2354C147.871 55.7744 146.64 57.0057 145.101 57.0057C143.561 57.0057 142.33 55.7744 142.33 54.2354C142.33 52.6964 143.561 51.4651 145.101 51.4651C146.578 51.4651 147.871 52.6964 147.871 54.2354Z" fill="#D44459"/>
<path d="M118.814 177.789C119.553 177.789 120.107 177.912 120.537 178.589C120.784 179.02 120.907 179.451 120.968 179.943C121.03 180.313 120.907 180.867 121.215 181.113C121.707 181.483 122.692 181.483 123.308 181.421C124.354 181.298 124.847 180.744 124.477 179.759C124.108 178.774 123.308 178.035 122.384 177.543C121.646 177.173 120.907 176.927 120.107 176.865C119.737 176.865 119.491 176.989 119.183 177.173C118.998 177.235 118.629 177.604 118.814 177.789Z" fill="#0A61B7"/>
<path d="M109.456 189.178C107.794 188.624 104.778 194.841 104.101 195.826C101.269 199.828 99.3604 204.322 98.0061 209C96.1592 215.341 94.3124 221.682 95.0512 228.331C95.5436 232.64 98.2523 235.78 102.869 235.287C105.086 235.041 109.333 234.733 111.119 233.44C111.919 232.886 111.98 232.086 111.303 231.101C110.565 230.054 110.072 230.301 108.779 230.547C106.44 231.039 104.408 231.655 102.315 229.808C100.284 228.023 100.099 224.822 100.222 222.298C100.407 218.542 101.084 214.972 102.069 211.34C103.3 206.784 105.147 202.66 106.871 198.289C107.61 196.38 108.718 194.287 109.149 192.256C109.395 191.025 109.149 190.101 109.58 188.931C109.395 188.931 109.149 188.87 109.456 189.178Z" fill="#0A61B7"/>
<path opacity="0.38" d="M100.899 233.871C99.9145 233.009 99.1757 231.84 98.6217 230.608C97.452 227.838 97.2673 224.699 97.3905 221.744C97.5136 218.481 98.0061 215.157 98.4986 211.955C98.9295 209.247 99.4835 206.538 100.222 203.891C100.469 202.906 100.776 201.921 101.084 200.936C99.7913 203.521 98.7448 206.23 97.9445 209.062C96.0977 215.403 94.2508 221.744 94.9896 228.392C95.4821 232.702 98.1908 235.841 102.808 235.349C102.931 235.349 103.116 235.349 103.239 235.287C102.377 234.918 101.577 234.487 100.899 233.871Z" fill="#50BCFF"/>
<path d="M141.407 233.379C140.299 234.487 131.803 235.779 123.985 236.21C122.323 236.272 120.722 236.334 119.245 236.334C115.551 236.334 110.872 236.457 109.58 235.41C106.502 232.948 98.9295 190.409 111.981 182.898C114.935 181.175 122.077 180.19 124.785 180.313C125.093 180.313 125.462 180.374 125.77 180.374C134.389 181.359 139.252 191.024 141.345 205.184C144.177 224.206 143.377 231.47 141.407 233.379Z" fill="#FFD900"/>
<path opacity="0.51" d="M123.985 236.211C122.323 236.273 120.722 236.334 119.245 236.334C115.551 236.334 110.872 236.457 109.58 235.411C106.502 232.948 98.9295 190.41 111.981 182.899C113.273 182.16 115.428 181.545 117.644 181.114C118.752 180.868 119.86 180.744 120.845 180.621C122.446 180.437 123.862 180.313 124.785 180.375C125.093 180.375 125.462 180.437 125.77 180.437C122.446 180.744 119.737 183.145 118.506 187.208C114.751 199.151 118.506 221.436 123.985 236.211Z" fill="#F59711"/>
<path opacity="0.5" d="M120.845 180.559C119.614 181.236 118.506 182.098 117.521 183.145C115.428 185.484 114.012 188.439 113.027 191.394C112.104 194.349 111.55 197.488 111.365 200.566C111.119 203.891 111.488 207.153 111.673 210.416C111.919 214.11 112.596 217.742 112.965 221.374C112.965 221.62 112.165 221.867 111.919 221.743C111.611 221.805 111.365 221.805 111.303 221.682C110.749 219.589 110.626 217.373 110.38 215.218C110.134 213.125 109.949 210.97 109.826 208.877C109.456 202.413 109.703 195.642 112.042 189.547C113.15 186.592 114.812 183.514 117.213 181.421C117.336 181.298 117.459 181.175 117.644 181.113C118.752 180.867 119.86 180.682 120.845 180.559Z" fill="#F55E11"/>
<path d="M136.174 195.949C136.112 195.457 135.928 194.841 135.497 194.534C135.066 194.164 134.327 194.164 133.773 194.226C132.049 194.226 130.264 194.349 128.356 194.534C127.494 194.595 126.632 194.657 125.77 194.841C125.586 194.903 124.601 194.841 124.293 195.395C124.17 195.642 124.231 196.75 124.293 197.673C124.354 198.72 124.416 199.643 124.908 199.828C125.093 199.828 125.278 199.889 125.524 199.951C125.77 199.951 126.016 199.889 126.263 199.889C126.755 199.828 127.248 199.766 127.74 199.766C128.664 199.643 129.587 199.582 130.449 199.458C132.111 199.274 133.773 199.089 135.312 198.843C135.682 198.781 136.051 198.658 136.236 198.289C136.359 198.043 136.359 197.735 136.297 197.488C136.297 196.934 136.236 196.442 136.174 195.949Z" fill="#0A61B7"/>
<path d="M115.182 182.221C114.566 182.283 115.059 178.651 115.613 177.912C116.536 176.681 118.075 176.373 119.491 176.188C121.153 176.004 124.477 177.727 124.416 179.82C123.431 178.097 120.414 176.188 118.691 178.22C117.952 179.082 118.691 180.498 118.26 181.236C117.644 182.221 115.797 182.221 115.182 182.221Z" fill="#50BCFF"/>
<path d="M145.593 234.117C144.608 234.856 135.989 236.334 130.264 236.395C128.233 236.457 126.57 236.334 125.709 235.903C123.923 235.041 122.815 227.038 123 218.85C123.185 212.756 125.093 207.461 128.848 205.799C130.572 204.999 132.234 204.691 133.773 204.63C134.45 204.63 135.128 204.691 135.743 204.814C141.345 205.861 145.531 211.586 146.393 218.973C147.748 229.192 146.947 233.132 145.593 234.117Z" fill="#50BCFF"/>
<path opacity="0.54" d="M135.867 204.876C133.589 205.123 132.05 206.723 131.681 207.4C129.588 211.156 129.034 215.834 128.911 220.205C128.726 225.253 128.911 231.348 130.326 236.457C128.295 236.519 126.633 236.396 125.771 235.965C123.986 235.103 122.878 227.1 123.062 218.912C123.247 212.818 125.155 207.523 128.911 205.861C130.634 205.061 132.296 204.753 133.835 204.692C134.513 204.63 135.19 204.753 135.867 204.876Z" fill="#0A61B7"/>
<path d="M112.165 221.005C113.212 221.005 113.581 224.268 113.335 224.575C113.089 224.883 111.796 225.006 111.488 224.76C111.18 224.575 111.119 221.066 112.165 221.005Z" fill="#0A61B7"/>
<path d="M188.563 236.334H186.285L194.042 167.508H200.444L188.563 236.334Z" fill="black"/>
<path d="M265.145 236.334H267.423L259.666 167.508H253.263L265.145 236.334Z" fill="black"/>
<path d="M249.077 236.334H251.355L243.598 167.508H237.196L249.077 236.334Z" fill="black"/>
<path d="M203.768 236.334H201.49L209.247 167.508H215.65L203.768 236.334Z" fill="black"/>
<path d="M272.286 89.2638L260.097 159.751H231.717L243.845 89.2638H272.286Z" fill="#0A61B7"/>
<path opacity="0.45" d="M268.777 89.2638L256.649 159.751H231.717L243.845 89.2638H268.777Z" fill="#0A61B7"/>
<path d="M260.097 159.751H192.934V169.232H260.097V159.751Z" fill="#0A61B7"/>
<path opacity="0.45" d="M217.066 159.751H192.934V169.232H217.066V159.751Z" fill="#0A61B7"/>
<path d="M174.157 193.056C174.157 193.056 162.03 195.457 164.862 198.289C167.693 201.121 183.884 203.829 184.623 202.721C185.423 201.613 187.824 193.61 187.824 193.61L176.62 188.562L174.157 193.056Z" fill="white"/>
<path d="M181.298 200.69C182.714 199.643 184.253 198.597 185.977 198.35C186.285 198.289 186.716 198.35 186.839 198.597C186.901 198.72 186.901 198.904 186.901 199.089C186.839 200.013 186.285 200.874 185.731 201.613C185.177 202.413 184.561 203.152 183.761 203.706C182.961 204.26 182.037 204.63 181.052 204.568C180.313 204.506 178.651 203.952 178.713 202.967C178.898 202.229 180.683 201.121 181.298 200.69Z" fill="#50BCFF"/>
<path d="M169.787 199.397C169.848 200.259 169.787 201.244 169.109 201.798C168.371 202.352 167.324 202.167 166.462 201.798C165.293 201.244 164.308 200.32 163.754 199.212C163.2 198.042 163.076 196.688 163.63 195.518C163.815 195.088 164.123 194.657 164.431 194.287C164.862 193.795 165.293 193.302 165.908 192.994C166.401 192.748 167.324 192.625 167.755 193.056C168.186 193.487 168.494 194.349 168.74 194.964C169.294 196.38 169.725 197.858 169.787 199.397Z" fill="#50BCFF"/>
<path opacity="0.24" d="M171.757 200.566C174.035 201.121 176.313 201.182 178.59 201.121C179.76 201.059 181.176 200.874 181.484 199.705C181.73 198.781 181.238 197.735 180.684 196.873C179.699 195.457 178.406 194.226 176.99 193.364C176.374 192.994 175.759 192.687 175.205 192.256C174.651 191.825 174.158 191.148 174.096 190.47C174.035 189.732 174.404 189.055 174.897 188.685C175.451 188.316 176.066 188.193 176.744 188.131C179.637 187.762 182.9 188.377 185.485 190.409C188.071 192.44 189.795 196.134 189.056 199.089C188.625 200.69 187.578 201.921 186.409 202.906C183.577 205.184 179.699 206.107 175.882 205.368C173.235 204.876 170.649 203.583 168.371 201.736C167.325 200.874 164.801 199.274 164.062 198.042C162.892 196.257 165.786 198.35 166.401 198.72C167.94 199.643 170.157 200.197 171.757 200.566Z" fill="#50BCFF"/>
<path d="M190.286 200.074C190.286 200.074 180.129 207.154 183.822 208.569C187.578 210.047 203.46 206.045 203.707 204.691C204.015 203.398 202.968 195.088 202.968 195.088L190.656 194.964L190.286 200.074Z" fill="white"/>
<path d="M199.89 204.199C200.752 202.66 201.737 201.059 203.276 200.197C203.584 200.013 203.953 199.889 204.199 200.074C204.322 200.197 204.384 200.32 204.445 200.505C204.753 201.428 204.63 202.352 204.445 203.275C204.261 204.199 203.953 205.122 203.522 205.984C203.03 206.784 202.291 207.523 201.429 207.892C200.752 208.139 198.966 208.262 198.659 207.4C198.289 206.6 199.521 204.876 199.89 204.199Z" fill="#50BCFF"/>
<path d="M188.87 207.646C189.301 208.446 189.609 209.37 189.178 210.109C188.747 210.909 187.701 211.155 186.777 211.155C185.485 211.094 184.192 210.663 183.268 209.862C182.283 209.062 181.668 207.769 181.668 206.538C181.668 206.046 181.791 205.553 181.914 205.122C182.099 204.507 182.283 203.829 182.714 203.337C183.084 202.906 183.822 202.413 184.438 202.66C184.992 202.906 185.669 203.583 186.1 204.014C187.208 205.061 188.132 206.292 188.87 207.646Z" fill="#50BCFF"/>
<path opacity="0.24" d="M191.148 207.954C193.488 207.523 195.581 206.723 197.612 205.738C198.659 205.245 199.828 204.445 199.705 203.275C199.582 202.352 198.72 201.552 197.797 200.997C196.319 200.074 194.657 199.458 192.995 199.274C192.318 199.212 191.579 199.151 190.902 198.966C190.225 198.781 189.548 198.35 189.178 197.796C188.809 197.181 188.87 196.38 189.24 195.826C189.548 195.272 190.102 194.903 190.717 194.534C193.241 193.056 196.442 192.317 199.644 193.118C202.845 193.979 205.861 196.627 206.415 199.643C206.662 201.244 206.231 202.844 205.492 204.199C203.83 207.461 200.629 209.801 196.812 210.663C194.165 211.278 191.271 211.155 188.501 210.355C187.208 209.985 184.253 209.493 183.084 208.693C181.298 207.523 184.807 208.262 185.485 208.385C187.27 208.631 189.486 208.2 191.148 207.954Z" fill="#50BCFF"/>
<path d="M244.584 141.222C244.584 141.222 248.093 157.905 237.935 158.151C227.778 158.397 200.445 159.444 200.445 159.444L187.517 197.242L172.003 191.64C172.003 191.64 183.146 149.963 187.332 146.516C191.518 143.068 218.174 140.975 223.345 141.098C228.455 141.221 244.584 141.222 244.584 141.222Z" fill="#D44459"/>
<path opacity="0.29" d="M244.584 141.222C244.584 141.222 248.093 157.905 237.935 158.151C227.778 158.397 200.445 159.444 200.445 159.444L187.517 197.242L172.003 191.64C172.003 191.64 183.146 149.963 187.332 146.516C191.518 143.068 218.174 140.975 223.345 141.098C228.455 141.221 244.584 141.222 244.584 141.222Z" fill="#663BFF"/>
<path d="M171.449 192.44L187.208 197.981L189.855 193.179L172.495 186.838L171.449 192.44Z" fill="#F59711"/>
<path opacity="0.3" d="M171.449 192.44L187.208 197.981L189.855 193.179L172.495 186.838L171.449 192.44Z" fill="#D44459"/>
<path opacity="0.27" d="M178.959 193.549C177.666 192.379 176.497 191.086 175.45 189.67C174.958 188.993 174.527 188.254 174.157 187.454L172.495 186.838L171.449 192.44L183.638 196.75C181.976 195.888 180.375 194.78 178.959 193.549Z" fill="#F59711"/>
<path d="M253.51 141.899C253.51 141.899 257.142 159.567 246.615 159.875C236.088 160.182 207.708 161.29 207.708 161.29L204.753 199.397L188.809 198.843C188.809 198.843 189.732 151.133 194.103 147.501C198.474 143.869 226.115 141.591 231.471 141.714C236.765 141.899 253.51 141.899 253.51 141.899Z" fill="#D44459"/>
<path opacity="0.1" d="M200.567 198.904C200.013 197.796 199.705 196.565 199.397 195.334C199.09 194.041 198.782 192.81 198.536 191.517C197.92 188.5 197.551 185.422 197.304 182.344C197.058 179.636 196.873 176.989 196.689 174.28C196.442 171.694 196.258 169.17 196.196 166.585C196.135 161.598 196.75 156.489 199.644 152.302C202.045 148.855 205.123 146.023 208.632 143.745C201.921 144.73 195.95 146.023 194.165 147.562C189.794 151.194 188.87 198.904 188.87 198.904L200.813 199.335C200.69 199.151 200.629 199.027 200.567 198.904Z" fill="#D44459"/>
<path opacity="0.1" d="M253.51 141.899C253.51 141.899 251.971 141.899 249.755 141.899C249.755 142.145 249.755 142.391 249.693 142.637C249.631 143.745 249.508 144.854 249.262 145.9C249.077 146.885 248.831 147.993 248.339 148.917C247.415 150.825 245.63 152.179 243.845 153.287C241.998 154.457 240.028 155.442 237.996 156.181C233.625 157.843 228.947 158.643 224.33 159.136C221.252 159.505 218.112 159.628 215.034 159.875C213.495 159.998 212.017 160.182 210.478 160.429C209.924 160.552 209.309 160.675 208.755 160.86C208.508 160.921 208.201 161.044 208.016 161.229C211.217 161.106 236.704 160.121 246.615 159.813C257.142 159.567 253.51 141.899 253.51 141.899Z" fill="#D44459"/>
<path d="M200.69 193.056C200.567 193.056 200.505 192.994 200.567 192.871L200.629 191.948C200.629 191.886 200.69 191.763 200.813 191.825C200.875 191.825 200.936 191.886 200.936 192.01L200.875 192.933C200.875 192.995 200.813 193.056 200.69 193.056Z" fill="#F59711"/>
<path d="M200.936 190.286C200.813 190.286 200.752 190.224 200.813 190.101L200.936 188.193C200.936 188.131 200.998 188.008 201.121 188.07C201.183 188.07 201.244 188.131 201.244 188.254L201.121 190.163C201.06 190.224 200.998 190.286 200.936 190.286ZM201.183 186.531C201.06 186.531 200.998 186.469 201.06 186.346L201.183 184.438C201.183 184.376 201.244 184.253 201.367 184.314C201.429 184.314 201.49 184.376 201.49 184.499L201.367 186.407C201.367 186.469 201.306 186.531 201.183 186.531ZM201.49 182.775C201.367 182.775 201.306 182.714 201.367 182.591C201.429 181.975 201.49 181.359 201.49 180.682C201.49 180.621 201.552 180.498 201.675 180.559C201.737 180.559 201.798 180.621 201.798 180.744C201.737 181.359 201.675 182.037 201.675 182.591C201.675 182.714 201.614 182.775 201.49 182.775ZM201.798 179.02C201.675 179.02 201.614 178.959 201.675 178.835L201.86 176.989C201.86 176.927 201.921 176.804 202.045 176.865C202.106 176.865 202.168 176.927 202.168 177.05L201.983 178.897C201.921 178.959 201.86 179.02 201.798 179.02ZM202.106 175.265C201.983 175.265 201.921 175.203 201.983 175.08L202.168 173.233C202.168 173.172 202.229 173.11 202.352 173.11C202.414 173.11 202.475 173.172 202.475 173.295L202.291 175.142C202.291 175.203 202.168 175.265 202.106 175.265ZM202.414 171.51C202.291 171.51 202.229 171.448 202.291 171.325L202.475 169.478C202.475 169.417 202.537 169.355 202.66 169.355C202.722 169.355 202.783 169.417 202.783 169.54L202.599 171.387C202.599 171.448 202.537 171.51 202.414 171.51ZM202.783 167.754C202.66 167.754 202.599 167.693 202.66 167.57C202.722 166.954 202.783 166.338 202.845 165.723C202.845 165.661 202.906 165.6 203.03 165.6C203.091 165.6 203.153 165.661 203.153 165.784C203.091 166.4 203.03 167.016 202.968 167.631C202.906 167.693 202.845 167.754 202.783 167.754ZM203.153 163.999C203.03 163.999 202.968 163.938 203.03 163.814C203.091 163.199 203.153 162.522 203.214 161.968C203.214 161.906 203.276 161.845 203.399 161.845C203.46 161.845 203.522 161.906 203.522 162.029C203.46 162.645 203.399 163.26 203.337 163.876C203.276 163.938 203.214 163.999 203.153 163.999ZM203.522 160.244C203.399 160.244 203.337 160.182 203.399 160.059C203.46 159.382 203.522 158.766 203.645 158.212C203.645 158.151 203.707 158.089 203.83 158.089C203.891 158.089 203.953 158.151 203.953 158.274C203.891 158.828 203.83 159.505 203.707 160.121C203.645 160.182 203.584 160.244 203.522 160.244ZM204.014 156.489C204.014 156.489 203.953 156.489 204.014 156.489C203.891 156.489 203.83 156.427 203.891 156.304C204.014 155.504 204.138 154.888 204.199 154.457C204.199 154.396 204.322 154.334 204.384 154.334C204.445 154.334 204.507 154.457 204.507 154.519C204.384 154.95 204.322 155.565 204.199 156.366C204.138 156.489 204.076 156.489 204.014 156.489ZM205.738 153.78C205.677 153.78 205.615 153.718 205.615 153.657C205.615 153.595 205.677 153.472 205.738 153.472C206.231 153.411 206.846 153.349 207.647 153.288C207.708 153.288 207.831 153.349 207.831 153.411C207.831 153.472 207.77 153.595 207.708 153.595C206.846 153.657 206.231 153.718 205.738 153.78ZM209.493 153.411C209.432 153.411 209.37 153.349 209.37 153.288C209.37 153.226 209.432 153.103 209.493 153.103C210.109 153.041 210.725 153.041 211.402 152.98C211.463 152.98 211.587 153.041 211.587 153.103C211.587 153.164 211.525 153.288 211.463 153.288C210.725 153.349 210.109 153.411 209.493 153.411ZM213.249 153.164C213.187 153.164 213.126 153.103 213.126 153.041C213.126 152.98 213.187 152.857 213.249 152.857C213.864 152.795 214.48 152.795 215.157 152.733C215.28 152.733 215.342 152.795 215.342 152.857C215.342 152.918 215.28 153.041 215.219 153.041C214.48 153.103 213.864 153.164 213.249 153.164ZM217.004 152.918C216.942 152.918 216.881 152.857 216.819 152.795C216.819 152.733 216.881 152.61 216.942 152.61L218.851 152.487C218.912 152.487 219.035 152.549 219.035 152.61C219.035 152.672 218.974 152.795 218.912 152.795L217.004 152.918ZM220.759 152.733C220.698 152.733 220.636 152.672 220.574 152.61C220.574 152.549 220.636 152.426 220.698 152.426L222.606 152.303C222.668 152.303 222.791 152.364 222.791 152.426C222.791 152.487 222.729 152.61 222.668 152.61L220.759 152.733ZM224.514 152.487C224.453 152.487 224.391 152.426 224.33 152.364C224.33 152.303 224.391 152.179 224.453 152.179L226.361 152.056C226.423 152.056 226.546 152.118 226.546 152.179C226.546 152.241 226.484 152.364 226.423 152.364L224.514 152.487ZM228.27 152.303C228.208 152.303 228.147 152.241 228.085 152.179C228.085 152.118 228.146 151.995 228.208 151.995C228.824 151.933 229.501 151.933 230.116 151.872C230.178 151.872 230.301 151.933 230.301 151.995C230.301 152.056 230.24 152.179 230.178 152.179C229.562 152.179 228.947 152.241 228.27 152.303ZM232.086 152.056C232.025 152.056 231.963 151.995 231.963 151.933C231.963 151.872 232.025 151.748 232.086 151.748C232.764 151.687 233.379 151.687 233.995 151.625C234.056 151.625 234.18 151.687 234.18 151.748C234.18 151.81 234.118 151.933 234.056 151.933C233.318 151.933 232.702 151.995 232.086 152.056ZM235.842 151.81C235.78 151.81 235.719 151.748 235.719 151.687C235.719 151.625 235.78 151.502 235.842 151.502C236.519 151.441 237.134 151.379 237.75 151.318C237.873 151.318 237.935 151.379 237.935 151.441C237.935 151.502 237.873 151.625 237.812 151.625C237.134 151.687 236.519 151.748 235.842 151.81ZM239.597 151.441C239.535 151.441 239.474 151.379 239.474 151.318C239.474 151.256 239.535 151.133 239.597 151.133C240.582 151.01 240.828 150.887 240.951 150.887C241.074 150.825 241.197 150.702 241.321 150.64C241.382 150.579 241.505 150.64 241.505 150.702C241.567 150.763 241.505 150.887 241.444 150.887C241.321 151.01 241.197 151.071 241.013 151.133C240.951 151.194 240.643 151.318 239.597 151.441ZM242.798 149.717C242.737 149.717 242.737 149.717 242.675 149.655C242.613 149.594 242.613 149.471 242.675 149.409C243.106 148.978 243.537 148.486 243.906 147.993C243.968 147.932 244.029 147.932 244.091 147.932C244.152 147.993 244.152 148.055 244.152 148.116C243.783 148.609 243.414 149.101 242.921 149.532C242.86 149.717 242.86 149.717 242.798 149.717Z" fill="#F59711"/>
<path d="M244.83 146.824C244.706 146.762 244.645 146.7 244.706 146.639C244.83 146.331 244.891 146.085 244.953 145.777C244.953 145.715 245.076 145.654 245.137 145.654C245.199 145.654 245.261 145.777 245.261 145.839C245.199 146.146 245.076 146.454 245.014 146.762C244.953 146.762 244.891 146.824 244.83 146.824Z" fill="#F59711"/>
<path d="M188.501 199.335L205.184 199.828L206.292 194.472L187.762 193.672L188.501 199.335Z" fill="#F59711"/>
<path opacity="0.27" d="M196.012 198.104C194.412 197.427 192.873 196.503 191.518 195.457C190.841 194.964 190.164 194.349 189.61 193.733L187.825 193.672L188.502 199.335L201.43 199.705C199.521 199.397 197.736 198.843 196.012 198.104Z" fill="#F59711"/>
<path d="M218.235 106.686C218.235 106.686 207.4 118.936 205.8 119.49C204.199 119.983 187.393 122.876 187.393 122.876L186.47 128.294C186.47 128.294 206.908 130.264 209.186 128.909C211.525 127.493 225.315 115.858 225.315 115.858L218.235 106.686Z" fill="#FFA18B"/>
<path d="M210.725 112.965C210.725 112.965 219.713 98.8058 223.653 97.7592C227.592 96.7127 235.103 99.7292 230.917 107.609C226.731 115.489 221.375 121.091 221.375 121.091C221.375 121.091 213.249 120.106 210.725 112.965Z" fill="#50BCFF"/>
<path opacity="0.38" d="M225.192 97.6361C224.084 99.052 223.16 100.591 222.36 102.192C221.313 104.162 220.328 106.193 219.466 108.225C218.543 110.318 217.681 112.411 216.942 114.504C216.45 115.981 216.019 117.52 215.711 118.998C218.543 120.783 221.375 121.091 221.375 121.091C221.375 121.091 226.731 115.489 230.917 107.609C234.61 100.714 229.193 97.5745 225.192 97.6361Z" fill="#50BCFF"/>
<path d="M254.679 122.261C253.571 105.762 252.833 101.699 250.863 99.2982C248.954 96.8973 241.936 95.8508 236.95 95.6661C231.963 95.4814 224.761 96.8973 222.668 98.3132C220.574 99.7291 219.343 105.762 219.713 113.211C219.959 119.675 221.375 126.57 221.313 129.525C221.19 135.065 220.144 137.22 219.343 141.345C225.561 145.654 249.57 147.993 254.679 146.947C255.172 141.283 255.233 130.264 254.679 122.261Z" fill="white"/>
<path d="M228.331 99.4829C228.147 100.222 228.454 101.022 229.008 101.576C229.501 102.13 230.301 102.438 231.04 102.623C232.456 102.992 235.657 102.623 237.073 100.96C239.474 106.624 242.244 112.657 247.785 115.735C249.324 116.597 250.986 117.274 252.709 117.52C254.433 117.767 256.28 117.459 257.634 116.412C259.235 115.181 259.974 113.088 259.974 111.056C259.974 109.025 259.358 106.993 258.619 105.023C257.388 101.699 255.788 98.3748 253.202 95.9739C249.262 92.3418 243.722 91.2953 238.612 91.1106C234.303 90.9875 229.993 91.3568 226.053 92.7112C222.175 94.0655 218.605 96.528 216.265 99.9138C213.249 104.346 212.51 110.441 214.357 115.735C214.665 115.797 215.157 115.858 215.403 115.674C218.174 113.95 219.528 110.625 221.252 107.732C223.037 104.654 225.561 101.761 228.331 99.4829Z" fill="#50BCFF"/>
<path opacity="0.24" d="M245.445 136.543C244.707 138.759 243.906 141.098 242.183 142.76C239.351 145.531 234.857 145.654 231.594 147.87C232.456 150.271 235.288 151.194 237.75 151.748C242.675 152.857 247.846 153.718 252.586 152.056C254.187 151.502 255.726 150.579 256.649 149.163C257.388 148.055 257.634 146.7 257.881 145.346C258.927 138.697 258.619 131.987 258.25 125.277C257.819 118.259 257.388 111.241 256.773 104.223C256.588 102.253 256.403 100.16 255.295 98.4979C254.618 97.513 253.571 96.6511 252.463 96.2817C250.678 95.6046 250.986 96.9589 251.109 98.3133C251.355 101.453 251.355 104.593 251.232 107.794C250.924 114.011 249.878 120.229 248.4 126.262C247.538 129.709 246.492 133.157 245.445 136.543Z" fill="#50BCFF"/>
<path opacity="0.24" d="M233.01 145.777C230.424 144.854 227.9 143.992 225.438 142.699C224.268 142.083 223.099 141.406 222.606 140.298C223.96 140.113 225.376 140.298 226.731 140.421C228.947 140.667 231.163 140.914 233.379 141.16C231.04 140.36 228.885 139.067 226.792 137.897C225.746 137.282 222.729 136.05 223.591 134.388C223.899 133.834 224.514 133.526 225.068 133.218C225.746 132.788 225.807 132.172 225.438 131.433C224.945 130.51 223.96 129.956 223.098 129.402C222.175 128.786 221.313 128.109 220.513 127.37C220.082 126.939 219.651 126.447 219.22 125.954C219.035 127.309 219.343 128.724 219.282 130.14C219.22 131.556 218.789 132.911 218.481 134.265C217.743 137.343 217.681 140.544 218.174 143.622C218.297 144.176 218.358 144.792 218.728 145.223C219.159 145.777 219.836 146.085 220.451 146.393C223.899 147.87 227.777 148.301 231.594 148.609C233.872 148.67 235.595 146.7 233.01 145.777Z" fill="#50BCFF"/>
<path d="M193.672 120.845C194.288 119.244 195.581 117.89 197.12 116.843C197.612 116.535 198.105 116.228 198.597 116.043C199.705 115.735 200.998 115.858 202.045 116.104C203.399 116.412 204.569 116.966 205.861 117.459C207.031 117.89 208.201 118.321 209.309 118.813C209.555 118.936 209.924 119.121 210.171 119.183C212.51 119.49 227.285 121.399 229.932 121.46C232.64 118.567 236.765 110.933 236.765 110.933C236.765 110.933 244.091 111.857 246.307 116.043C246.307 115.92 237.381 128.724 236.088 129.402C234.734 130.079 228.762 129.094 221.436 127.185C215.896 125.77 211.156 124.292 209.186 123.615C208.878 123.676 208.57 123.738 208.201 123.8C204.322 124.046 204.938 121.891 204.753 121.768L204.876 121.645C204.138 121.891 203.399 122.137 202.599 122.384C202.291 122.445 201.86 122.507 201.737 122.261C201.614 122.076 201.798 121.83 201.921 121.645C202.414 121.029 202.968 120.414 203.584 119.86C202.352 120.66 201.121 121.522 199.828 122.322C199.582 122.507 199.213 122.63 199.028 122.507C198.782 122.384 198.905 122.014 199.028 121.768C199.644 120.598 200.567 119.49 201.737 118.628C200.875 119.244 200.075 119.921 199.213 120.537C198.659 120.968 198.043 121.399 197.427 121.768C196.873 122.137 196.196 122.445 195.581 122.261C195.519 122.261 195.457 122.199 195.396 122.137C195.396 122.076 195.396 122.014 195.457 121.953C196.196 120.537 197.427 119.429 198.72 118.321C197.612 119.182 196.504 120.044 195.396 120.906C194.965 121.214 194.411 121.583 193.918 121.46C193.795 121.46 193.734 121.399 193.672 121.276C193.549 121.214 193.611 121.029 193.672 120.845Z" fill="#FFC9B0"/>
<path d="M234.426 121.152C233.564 120.106 233.01 119.059 232.579 117.951C234.734 114.689 236.765 110.933 236.765 110.933C236.765 110.933 244.091 111.857 246.307 116.043C246.307 115.981 242.552 121.276 239.597 125.277C237.504 124.6 235.657 122.568 234.426 121.152Z" fill="#FFC9B0"/>
<path opacity="0.3" d="M204.692 121.091C205.615 121.214 206.354 121.583 207.277 121.768C208.139 121.953 209.001 122.014 209.863 122.199C212.141 122.63 214.295 123.43 216.511 124.107C220.575 125.462 224.761 126.57 229.008 127.493C231.594 128.047 234.303 128.786 237.073 128.601C236.704 129.032 236.396 129.34 236.211 129.402C234.857 130.079 228.885 129.094 221.559 127.186C216.019 125.77 211.279 124.292 209.309 123.615C209.001 123.677 208.693 123.738 208.324 123.8C204.445 124.046 205.061 121.891 204.876 121.768L205 121.645C204.261 121.891 203.522 122.137 202.722 122.384C202.537 122.445 202.291 122.507 202.106 122.445C202.845 121.891 203.768 121.522 204.692 121.091Z" fill="#FFC9B0"/>
<path d="M231.594 116.843C232.271 115.92 237.75 107.301 239.658 104.1C240.643 102.438 241.752 100.714 243.414 99.4829C244.583 98.5595 247.908 96.528 250.247 99.2982C250.37 99.4214 250.493 99.606 250.616 99.7292C250.74 99.9139 250.863 100.099 250.986 100.283C252.586 102.992 252.094 106.747 251.17 109.948C250.986 110.564 250.74 111.18 250.493 111.795C248.831 115.612 246.061 120.414 243.352 123.923C239.658 123.615 233.441 120.291 231.594 116.843Z" fill="#50BCFF"/>
<path opacity="0.38" d="M250.678 110.133C250.001 111.056 249.262 111.98 248.462 112.903C247.169 114.442 245.815 115.858 244.399 117.213C243.044 118.567 241.628 119.921 240.151 121.152C239.659 121.583 239.104 122.014 238.55 122.445C240.213 123.184 241.936 123.738 243.229 123.8C245.938 120.291 248.708 115.55 250.37 111.672C250.616 111.056 250.863 110.441 251.047 109.825C251.109 109.641 251.17 109.394 251.232 109.21C251.109 109.579 250.924 109.887 250.678 110.133Z" fill="#50BCFF"/>
<path d="M229.193 91.049L237.627 89.8178L238.55 96.7742C238.612 97.2667 238.489 97.7592 238.119 98.1901C237.381 99.052 235.842 100.468 233.318 100.776C230.732 101.083 230.424 99.9138 230.424 99.1751C230.486 98.4979 230.363 97.8207 230.24 97.1436L229.193 91.049Z" fill="#FFC9B0"/>
<path d="M243.783 83.3539C243.352 83.3539 242.798 83.2923 242.49 82.9845C242.182 82.6767 242.121 82.1842 241.936 81.8149C241.321 80.5836 239.966 79.968 238.673 80.8299C235.595 82.923 237.073 86.4935 237.319 87.0476C237.689 87.8479 238.55 88.5866 239.412 88.8944C239.72 88.956 240.274 89.0791 240.336 88.6482C240.397 88.4019 240.089 88.1557 240.089 87.971C240.705 88.2172 241.197 88.4635 241.813 88.4635C242.552 88.4635 243.845 88.2788 244.214 87.5401C244.583 86.8013 243.845 86.432 243.291 86.1242C244.276 86.1857 245.199 84.8314 245.568 84.0926C245.999 83.1077 244.337 83.3539 243.783 83.3539Z" fill="black"/>
<path d="M216.327 67.7174C216.019 68.2098 215.896 68.7639 215.773 69.3179C215.526 70.7338 215.465 72.2113 215.711 73.6272C215.773 74.2428 215.957 74.8585 216.265 75.4125C216.758 76.1512 217.558 76.6437 218.358 77.0131C218.851 77.2593 219.466 77.444 219.959 77.2593C220.328 77.1362 220.574 76.8284 220.759 76.5206C221.375 75.4125 221.19 74.0582 221.005 72.8269C220.821 71.6573 220.636 70.426 220.144 69.3179C219.774 68.5176 219.22 67.7173 218.481 67.1633C217.558 66.5477 216.819 66.9171 216.327 67.7174Z" fill="black"/>
<path d="M229.562 93.6962C224.514 94.9274 221.744 93.6962 220.267 91.9725C220.144 91.8493 220.082 91.7262 219.959 91.6031C218.543 89.6947 217.435 85.447 217.127 83.7848C217.127 83.6617 217.066 83.477 217.066 83.3539V83.2923C216.635 80.953 216.511 78.429 216.573 75.7819C217.004 64.5161 226.423 59.6528 234.487 63.3465C237.504 64.7624 240.151 67.348 241.628 70.5492C241.752 70.7954 241.875 71.0416 241.998 71.2879C246.738 82.6152 239.166 91.4184 229.562 93.6962Z" fill="#FFC9B0"/>
<g opacity="0.21">
<g opacity="0.21">
<path opacity="0.21" d="M221.252 91.3569C221.005 91.6647 220.698 91.8493 220.267 91.9725C220.144 91.8493 220.082 91.7262 219.959 91.6031C218.543 89.6947 217.435 85.447 217.127 83.7848C217.127 83.6617 217.066 83.477 217.066 83.3539C217.743 83.4155 218.297 83.8464 218.789 84.2773C220.39 85.7548 221.375 87.6632 221.56 89.6947C221.621 90.3103 221.56 90.9259 221.252 91.3569Z" fill="#D44459"/>
<path opacity="0.21" d="M236.211 89.51C236.334 89.4485 236.457 89.3254 236.58 89.2638C238.366 87.7248 240.397 84.5236 238.612 82.1227C237.689 80.953 236.026 80.6452 234.672 81.1377C233.318 81.6302 232.333 82.7999 231.717 84.1542C231.225 85.1392 230.917 86.2473 230.978 87.3554C231.04 88.4635 231.594 89.5716 232.517 90.1872C233.687 90.8644 235.103 90.3103 236.211 89.51Z" fill="#D44459"/>
</g>
</g>
<path d="M246.8 73.8119C246.676 74.7353 246.43 75.7203 246.184 76.6437C246.061 77.0131 245.691 79.1677 245.384 79.2908C245.261 79.3524 245.137 79.3524 245.014 79.3524C244.706 79.3524 244.46 79.1677 244.276 78.983C243.845 78.5521 243.475 78.0596 242.737 78.1212C241.752 78.2443 241.013 80.5221 239.966 80.5221C238.735 80.5836 238.243 79.3524 237.873 78.2443C237.935 77.0131 237.812 76.3975 238.181 73.8735C238.181 73.8119 238.181 73.7503 238.181 73.6272C238.119 73.5041 238.058 73.4425 237.996 73.381C237.258 72.3344 235.965 71.9035 234.857 71.3495C234.118 70.9801 233.502 70.3645 232.887 69.872C232.148 69.2564 231.532 68.5176 231.163 67.6558C230.794 66.7939 230.609 65.8705 230.301 65.0086C228.824 66.7324 226.854 68.333 224.699 69.3179C223.222 69.9951 221.559 70.6723 219.959 71.0416C218.728 71.3495 216.758 71.6573 215.711 70.7954C214.726 69.9951 214.788 68.7639 215.034 67.5942C215.403 65.8705 216.635 64.7008 217.989 63.5927C221.683 60.5762 226.423 58.5447 231.286 58.2985C232.333 58.2369 233.441 58.2985 234.487 58.4216C235.903 58.6063 237.258 58.9141 238.55 59.4681C238.981 59.6528 239.412 59.8375 239.843 60.0837C240.151 60.2684 240.52 60.4531 240.828 60.6378C241.936 61.315 242.983 62.1768 243.845 63.1618C245.199 64.5777 246.184 66.3014 246.615 68.1483V68.2098C247.169 69.9335 247.107 71.9035 246.8 73.8119Z" fill="black"/>
<path d="M221.005 81.938C221.129 82.7383 220.821 83.477 220.328 83.5386C219.836 83.6002 219.282 83.0461 219.159 82.1842C219.035 81.384 219.343 80.6452 219.836 80.5837C220.328 80.5221 220.882 81.1377 221.005 81.938Z" fill="black"/>
<path d="M231.532 80.5836C231.656 81.4455 231.286 82.1842 230.732 82.2458C230.116 82.3074 229.562 81.7533 229.439 80.8915C229.316 80.0296 229.686 79.2909 230.24 79.2293C230.855 79.1062 231.409 79.7218 231.532 80.5836Z" fill="black"/>
<path d="M223.653 87.0475C224.822 86.986 225.992 86.6782 227.038 86.1857C228.085 85.6932 229.008 85.016 229.87 84.2157C229.932 84.1542 230.055 84.2157 229.993 84.3388C228.639 86.2472 225.992 87.3553 223.653 87.2322C223.529 87.2938 223.529 87.1091 223.653 87.0475Z" fill="#C72C19"/>
<path d="M223.714 85.1392C223.037 84.9545 222.36 84.462 222.36 83.7233C222.36 83.4155 222.544 83.0461 222.791 82.8615C223.037 82.7383 223.283 82.6768 223.529 82.5536C224.084 82.1843 223.837 81.6302 223.653 81.1377C223.406 80.399 223.222 79.5987 222.791 78.9215C222.729 78.86 222.544 78.86 222.544 78.9831C222.606 79.3525 222.729 79.7834 222.852 80.1528C222.975 80.5837 223.16 80.9531 223.283 81.384C223.345 81.5687 223.529 81.938 223.406 82.1227C223.345 82.2458 223.16 82.3074 223.037 82.369C222.791 82.4921 222.483 82.5536 222.298 82.7999C221.929 83.2308 221.867 83.8464 222.114 84.3389C222.36 84.893 223.037 85.2008 223.591 85.2623C223.776 85.2623 223.837 85.1392 223.714 85.1392Z" fill="#C72C19"/>
<path d="M220.759 75.3509C220.944 75.7819 220.267 75.7819 219.282 76.0281C218.297 76.3359 218.235 77.1978 217.927 77.1362C217.62 77.0747 217.681 75.5356 218.974 75.0431C219.959 74.6738 220.636 75.0431 220.759 75.3509Z" fill="black"/>
<path d="M227.038 74.3044C226.977 74.7353 228.208 74.5506 229.562 74.4275C230.917 74.366 231.902 75.2894 232.086 74.9816C232.271 74.6122 231.286 73.4425 229.624 73.4425C227.9 73.381 227.1 73.9966 227.038 74.3044Z" fill="black"/>
<path d="M240.274 78.983C241.013 77.1362 242.49 75.6587 244.645 76.2743C245.322 76.5206 245.876 77.0746 246.122 77.7518C246.369 78.429 246.369 79.1677 246.246 79.8449C245.999 81.6302 245.014 83.3539 243.475 84.3389C242.86 84.7082 242.121 84.9545 241.505 84.7698C240.582 84.462 240.151 83.477 239.905 82.6151C239.658 81.6302 239.782 80.2142 240.274 78.983Z" fill="#FFC9B0"/>
<path opacity="0.3" d="M242.675 77.2594C242.121 77.8135 241.875 78.5522 241.383 79.0447C241.013 79.4141 240.829 79.9681 240.213 79.3525C240.275 79.2294 240.275 79.1063 240.336 79.0447C241.013 77.321 242.368 75.9051 244.338 76.2744C243.66 76.3976 243.106 76.7669 242.675 77.2594Z" fill="#FFC9B0"/>
<path d="M244.768 78.0596C244.583 77.9365 244.337 77.8749 244.091 77.8749C243.537 77.9365 243.044 78.3058 242.737 78.7368C242.429 79.2293 242.182 79.7218 242.059 80.2758C241.875 80.8299 241.813 81.3839 241.813 81.9995C241.813 82.1226 241.998 82.1226 241.998 81.9995C241.998 81.0761 242.367 80.0911 242.86 79.2908C242.921 79.1677 243.044 79.0446 243.106 78.9215C243.414 79.2908 243.537 79.7833 243.598 80.2758C243.66 80.8299 243.475 81.3839 243.291 81.938C243.291 81.9995 243.352 82.0611 243.414 81.9995C244.091 81.0145 244.091 79.6602 243.291 78.7983C243.475 78.6137 243.66 78.4905 243.906 78.429C244.276 78.3058 244.83 78.429 245.014 78.7983C245.076 78.8599 245.199 78.7983 245.137 78.7368C245.076 78.3674 244.953 78.1827 244.768 78.0596Z" fill="#C72C19"/>
<path d="M72.1504 236.334H69.1954L79.1068 136.912H87.2329L72.1504 236.334Z" fill="black"/>
<path d="M235.596 236.334H238.489L228.639 136.912H220.513L235.596 236.334Z" fill="black"/>
<path d="M233.256 128.294H74.4897V139.19H233.256V128.294Z" fill="#0A61B7"/>
<path opacity="0.45" d="M233.256 128.232H74.4897V132.48H233.256V128.232Z" fill="#0A61B7"/>
<path d="M236.704 125.154H71.0423V130.51H236.704V125.154Z" fill="#0A61B7"/>
<path d="M125.278 89.8178H168.494C169.356 89.8178 170.094 90.3719 170.402 91.1106L182.037 122.076H135.497L123.985 91.6647C123.677 90.7412 124.293 89.8178 125.278 89.8178Z" fill="#94D5FF"/>
<path d="M133.847 125.365L202.611 125.365V122.164L133.847 122.164V125.365Z" fill="#94D5FF"/>
<path d="M194.411 124.908C196.135 124.538 199.521 123.738 201.429 122.138H202.599V125.339H191.887C192.749 125.216 193.611 125.092 194.411 124.908Z" fill="#50BCFF"/>
<path d="M133.868 125.365H180.408V122.164H133.868V125.365Z" fill="#50BCFF"/>
<path opacity="0.8" d="M175.45 123.122H162.03V124.538H175.45V123.122Z" fill="#50BCFF"/>
<path opacity="0.8" d="M138.452 123.122H135.374V124.538H138.452V123.122Z" fill="#50BCFF"/>
<path opacity="0.8" d="M142.515 123.122H139.437V124.538H142.515V123.122Z" fill="#50BCFF"/>
<path d="M123.678 89.8186H166.894C167.755 89.8186 168.494 90.3727 168.802 91.1114L180.437 122.077H133.835L122.446 91.6654C122.077 90.742 122.754 89.8186 123.678 89.8186Z" fill="#50BCFF"/>
<path opacity="0.51" d="M123.677 89.8186H160.06C142.33 90.2495 132.911 90.8036 129.279 91.3576C125.647 91.9117 123.185 92.712 123.8 95.3591L122.384 91.6039C122.077 90.742 122.754 89.8186 123.677 89.8186Z" fill="#94D5FF"/>
<path opacity="0.35" d="M133.588 119.552C143.13 122.138 155.32 121.522 162.953 114.504C167.016 110.81 168.986 105.147 168.863 99.7292C168.802 96.7127 168.247 92.8959 166.832 89.7563C167.693 89.7563 168.432 90.3104 168.74 91.0491L180.375 122.014H133.835L132.788 119.183C133.096 119.429 133.342 119.49 133.588 119.552Z" fill="#50BCFF"/>
<path opacity="0.46" d="M176.681 123.738C176.681 124.231 177.051 124.6 177.543 124.6C178.036 124.6 178.405 124.231 178.405 123.738C178.405 123.246 178.036 122.876 177.543 122.876C177.112 122.876 176.681 123.246 176.681 123.738Z" fill="#50BCFF"/>
<path opacity="0.8" d="M176.991 123.74C176.991 124.048 177.238 124.355 177.607 124.355C177.915 124.355 178.223 124.109 178.223 123.74C178.223 123.432 177.976 123.124 177.607 123.124C177.299 123.186 176.991 123.432 176.991 123.74Z" fill="#50BCFF"/>
<path d="M156.428 111.672L153.165 109.025C152.857 108.779 152.488 108.656 152.118 108.717L148.733 109.456C147.932 109.641 147.009 108.717 147.194 107.917L147.994 104.531C148.055 104.223 147.994 103.854 147.686 103.484L145.1 100.222C144.485 99.4214 144.854 98.498 145.778 98.6211L149.533 99.1751C149.902 99.2367 150.21 99.1136 150.395 98.8058L152.18 96.0355C152.611 95.3583 153.781 95.6661 154.15 96.5896L155.689 100.283C155.812 100.653 156.12 100.96 156.489 101.084L160.183 102.684C161.045 103.053 161.414 104.223 160.737 104.654L157.967 106.439C157.721 106.624 157.597 106.932 157.597 107.301L158.09 111.056C158.213 111.918 157.228 112.349 156.428 111.672Z" fill="#414379"/>
<path d="M156.428 110.379L152.919 107.547C152.796 107.486 152.672 107.424 152.549 107.424L148.856 108.225C148.548 108.286 148.24 107.978 148.302 107.671L149.163 103.977C149.163 103.854 149.163 103.731 149.04 103.608L146.209 100.037C146.024 99.7908 146.147 99.4214 146.455 99.4829L150.518 100.037C150.641 100.037 150.764 100.037 150.826 99.9139L152.796 96.8974C152.919 96.6511 153.35 96.7743 153.473 97.0821L155.135 101.084C155.196 101.207 155.258 101.33 155.381 101.33L159.383 103.053C159.69 103.177 159.814 103.546 159.567 103.731L156.551 105.639C156.489 105.701 156.428 105.824 156.428 105.947L156.982 110.01C157.043 110.441 156.674 110.564 156.428 110.379Z" fill="#FFD900"/>
<path d="M154.15 105.639L152.919 104.654C152.857 104.654 152.857 104.593 152.796 104.593L151.503 104.9C151.38 104.9 151.318 104.839 151.318 104.716L151.626 103.423C151.626 103.361 151.626 103.361 151.564 103.3L150.579 102.069C150.518 101.945 150.579 101.884 150.641 101.884L152.057 102.069C152.118 102.069 152.118 102.069 152.18 102.007L152.857 100.96C152.919 100.899 153.042 100.899 153.103 101.022L153.657 102.438C153.657 102.499 153.719 102.499 153.781 102.561L155.196 103.177C155.32 103.238 155.32 103.361 155.258 103.423L154.212 104.1C154.15 104.1 154.15 104.162 154.15 104.223L154.335 105.639C154.335 105.701 154.212 105.701 154.15 105.639Z" fill="white"/>
<path d="M143.254 111.98C144.239 115.366 147.378 117.951 150.333 117.828C153.288 117.644 154.889 114.812 153.904 111.426C152.919 108.04 149.779 105.454 146.824 105.578C143.931 105.701 142.269 108.594 143.254 111.98Z" fill="white"/>
<path d="M144.239 111.918C145.039 114.689 147.624 116.843 150.025 116.72C152.426 116.597 153.781 114.258 152.98 111.487C152.18 108.717 149.594 106.562 147.194 106.686C144.793 106.809 143.438 109.148 144.239 111.918Z" fill="#D44459"/>
<path d="M151.934 111.241C151.872 111.118 151.749 111.056 151.626 111.18C151.195 111.487 150.764 110.687 150.518 110.441C150.087 109.948 149.656 109.394 149.287 108.902C149.102 108.717 148.733 108.779 148.671 109.087C148.609 109.456 148.671 109.825 148.671 110.133C148.609 110.071 148.548 109.948 148.486 109.887C148.24 109.579 147.871 109.271 147.501 109.456C147.07 109.641 147.07 110.133 147.07 110.564C147.07 111.549 147.317 112.534 147.624 113.457C147.686 113.704 147.809 113.95 147.871 114.196C147.932 114.381 147.994 114.689 148.055 114.873H147.994C147.932 114.812 147.809 114.75 147.748 114.689C147.563 114.565 147.44 114.381 147.317 114.258C147.009 113.888 146.701 113.457 146.516 112.965C146.393 112.596 146.085 111.918 146.393 111.611C146.516 111.426 146.332 111.241 146.147 111.364C145.531 111.918 145.962 112.965 146.209 113.58C146.393 114.011 146.639 114.381 146.947 114.689C147.194 114.996 147.501 115.366 147.871 115.489C148.24 115.612 148.671 115.489 148.733 115.058C148.733 114.812 148.671 114.565 148.609 114.381C148.548 114.135 148.486 113.827 148.363 113.58C148.055 112.596 147.748 111.611 147.809 110.502C147.809 110.441 147.809 110.379 147.809 110.318C147.871 110.379 147.871 110.379 147.932 110.441C148.117 110.687 148.24 110.933 148.363 111.18C148.609 111.672 148.856 112.226 148.979 112.78C149.102 113.211 149.656 113.088 149.718 112.657C149.779 111.918 149.533 111.18 149.41 110.379C149.779 110.81 150.148 111.303 150.518 111.734C150.764 111.98 151.072 112.165 151.441 112.103C151.811 111.857 152.057 111.611 151.934 111.241Z" fill="#FFD900"/>
<path d="M110.934 98.9905C109.025 97.4514 108.902 94.5581 109.58 92.4034C109.887 91.2953 110.257 90.1256 110.38 88.956C110.503 88.0326 110.626 86.9245 110.257 86.001C110.503 86.432 110.811 86.6782 111.057 87.1091C111.488 87.7248 111.734 88.4019 111.919 89.1407C112.288 90.2488 112.534 91.2953 112.534 92.5265C112.534 93.6346 112.227 94.7427 112.104 95.8508C111.98 96.5896 111.919 97.3283 111.673 98.0055C111.611 98.1902 111.242 99.2367 110.934 98.9905Z" fill="#94D5FF"/>
<path d="M109.21 99.1752C106.932 98.2518 105.332 96.7743 104.532 94.6812C104.162 93.7578 103.977 92.8344 103.793 91.9109C103.731 91.4185 103.608 90.926 103.547 90.495C103.547 90.7413 103.793 90.9875 103.977 91.1722C104.347 91.6031 104.778 91.9109 105.209 92.2803C105.701 92.7112 106.132 93.0806 106.625 93.45C107.179 93.8193 107.794 94.1887 108.287 94.6196C109.272 95.4815 110.072 96.5896 110.38 97.8824C110.503 98.3749 110.441 98.9289 110.257 99.1136C110.134 99.2983 109.641 99.3599 109.21 99.1752Z" fill="#94D5FF"/>
<path d="M110.872 98.9289C110.503 98.4365 111.057 97.4515 111.365 97.0205C112.104 96.0356 113.15 95.2353 114.197 94.6197C115.366 94.004 116.659 93.5731 117.952 93.0806C118.506 92.8959 119.06 92.7113 119.553 92.4034C119.799 92.2188 120.168 91.9725 120.291 91.6647C120.291 93.0806 119.245 94.3118 118.444 95.2968C117.521 96.3434 116.536 97.1437 115.305 97.7593C114.566 98.1286 113.827 98.4364 113.027 98.6827C112.596 98.8674 112.104 98.9905 111.673 98.9905C111.365 98.9905 110.996 99.1136 110.872 98.9289Z" fill="#94D5FF"/>
<path d="M119.368 82.9845C118.26 84.0926 117.398 85.3854 116.536 86.6782C115.674 88.0325 114.874 89.4485 114.135 90.9259C112.719 93.7577 111.611 96.7742 110.995 99.9139C110.995 100.037 111.18 100.099 111.18 99.9754C112.104 96.9589 113.212 93.9424 114.628 91.1106C115.305 89.7563 116.044 88.4019 116.905 87.1091C117.767 85.7548 118.752 84.5236 119.614 83.1692C119.737 82.9845 119.491 82.8614 119.368 82.9845Z" fill="#0A61B7"/>
<path d="M109.272 91.6031C108.533 89.0791 107.486 86.432 105.578 84.5236C105.517 84.462 105.393 84.5236 105.455 84.6467C107.056 86.8014 108.102 89.2638 108.779 91.8494C109.518 94.6196 109.764 97.3899 110.072 100.222C110.072 100.406 110.318 100.406 110.318 100.222C110.626 97.3283 110.072 94.3118 109.272 91.6031Z" fill="#0A61B7"/>
<path d="M104.962 86.7398C104.47 86.7398 103.916 86.5551 103.485 86.3089C103.116 86.0626 102.992 85.6933 102.869 85.2623C102.746 84.7698 102.438 84.462 102.069 84.1542C101.577 83.7233 101.023 83.4155 100.345 83.3539C100.222 83.3539 99.8528 83.3539 99.8528 83.2308C99.7913 83.0461 100.345 82.7383 100.468 82.6768C100.899 82.4921 101.453 82.369 101.884 82.369C102.254 82.369 102.623 82.5536 102.931 82.4921C102.562 82.1843 102.315 81.6302 102.254 81.1993C102.254 80.7684 102.377 79.8449 102.869 79.6603C103.239 79.5371 103.239 80.0912 103.239 80.3374C103.3 80.7684 103.485 81.4455 103.854 81.7533C103.854 81.0762 104.224 80.1527 104.901 79.9065C104.962 80.3374 104.593 80.8299 104.778 81.1993C104.901 80.953 105.086 80.7068 105.27 80.5221C105.393 80.399 105.64 80.1528 105.824 80.1528C105.701 80.4606 105.701 80.8299 105.701 81.1377C105.701 81.8149 106.194 82.0612 106.625 82.4921C106.871 82.7383 107.117 82.923 107.302 83.2308C107.548 83.6617 107.486 84.2774 107.425 84.7698C107.425 85.5701 106.686 86.6782 104.962 86.7398Z" fill="#D44459"/>
<path d="M123 81.0146C123.061 81.0146 123.246 80.9531 123.246 80.8915C123.308 80.5837 122.446 80.4606 122.261 80.4606C121.953 80.399 121.584 80.399 121.276 80.4606C121.153 80.4606 120.968 80.5837 120.968 80.4606C120.907 80.3374 121.153 80.0296 121.215 79.9065C121.276 79.7834 121.399 79.5987 121.399 79.414C121.03 79.3525 120.23 79.7834 120.168 80.1528C119.922 79.845 119.86 79.414 119.614 79.1062C119.491 78.9215 119.306 78.7368 119.122 78.6753C118.998 78.6137 118.752 78.5522 118.691 78.6753C118.567 78.7368 118.629 78.9215 118.629 79.0447C118.629 79.414 118.691 79.7834 118.629 80.1528C118.506 80.5837 118.198 80.7068 117.829 80.9531C117.583 81.0762 117.336 81.3224 117.213 81.5071C116.967 81.8149 116.782 82.1843 116.721 82.6152C116.659 83.4155 117.152 84.1542 117.767 84.6467C117.952 84.7699 118.137 84.893 118.321 85.0161C119.491 85.6317 121.215 85.9395 121.892 84.462C122.2 83.8464 122.2 83.2308 122.138 82.5536C122.138 82.4305 122.138 82.3074 122.2 82.2458C122.323 82.0612 122.507 81.9996 122.692 81.938C122.815 81.8765 123.123 81.8149 122.877 81.6918C122.692 81.5687 122.384 81.6302 122.2 81.6302C122.384 81.4455 122.569 81.3224 122.754 81.1993C122.692 81.1377 122.815 81.0762 123 81.0146Z" fill="#D44459"/>
<path d="M119.983 113.336C119.983 110.381 118.568 108.411 116.413 107.303C114.997 106.564 114.012 105.148 114.012 103.486V98.8076H107.979V103.486C107.979 105.087 106.994 106.564 105.578 107.303C103.423 108.411 102.008 110.381 102.008 113.336C102.008 115.306 102.623 117.338 103.67 119.123C104.593 120.785 106.871 122.632 106.871 124.479H115.059C115.059 122.57 117.336 120.723 118.26 119.123C119.368 117.338 119.983 115.306 119.983 113.336Z" fill="#FFD900"/>
<path d="M114.258 99.6676H107.733C107.548 99.6676 107.363 99.4829 107.363 99.2983V98.9289C107.363 98.7442 107.548 98.5595 107.733 98.5595H114.258C114.443 98.5595 114.628 98.7442 114.628 98.9289V99.2983C114.628 99.4829 114.443 99.6676 114.258 99.6676Z" fill="#F59711"/>
<path d="M115.305 124.169H106.686C106.502 124.169 106.317 124.354 106.317 124.538V124.846C106.317 125.031 106.502 125.216 106.686 125.216H115.305C115.489 125.216 115.674 125.031 115.674 124.846V124.538C115.674 124.292 115.489 124.169 115.305 124.169Z" fill="#F59711"/>
</svg>
