<svg width="211" height="220" viewBox="0 0 211 220" fill="none" xmlns="http://www.w3.org/2000/svg">
<g clip-path="url(#clip0)">
<path d="M82.4563 144.372C84.331 155.225 91.6323 160.109 104.36 159.024" stroke="#053361" stroke-width="8.88" stroke-linecap="round" stroke-linejoin="round"/>
<path d="M55.3721 55.276C58.4307 54.5853 61.588 54.24 64.844 54.24C75.9934 54.24 85.5147 58.1867 93.408 66.08C101.203 73.8747 105.149 83.1987 105.248 94.052M55.3721 55.276C63.8574 47.1853 73.4774 41.66 84.2321 38.7C90.2507 37.0227 96.664 36.184 103.472 36.184C105.544 36.184 107.616 36.2827 109.688 36.48M55.3721 55.276C51.4254 56.164 47.676 57.6934 44.124 59.864C41.3614 61.5414 38.7467 63.6133 36.2801 66.08C28.3867 73.9733 24.4401 83.4947 24.4401 94.644C24.4401 105.596 28.2387 114.969 35.836 122.764M105.248 94.052C105.445 83.1987 109.441 73.8747 117.236 66.08C125.129 58.1867 134.601 54.24 145.652 54.24C147.329 54.24 148.957 54.3387 150.536 54.536M105.248 94.052V95.088M150.536 54.536C139.485 44.2747 126.708 38.3547 112.204 36.776C111.316 36.5787 110.477 36.48 109.688 36.48M150.536 54.536C156.357 55.128 161.685 56.904 166.52 59.864C169.283 61.5414 171.897 63.6133 174.364 66.08C182.257 73.9733 186.204 83.4947 186.204 94.644C186.204 105.793 182.257 115.315 174.364 123.208C172.884 124.688 171.404 126.02 169.924 127.204M109.688 36.48V36.184M109.688 36.48L99.772 10.728L109.688 36.184M35.836 122.764C36.0334 122.961 36.1814 123.109 36.2801 123.208C44.1734 131.101 53.6947 135.048 64.844 135.048C75.9934 135.048 85.5147 131.101 93.408 123.208C94 122.616 94.5427 122.073 95.036 121.58C101.745 114.081 105.149 105.251 105.248 95.088M35.836 122.764C38.796 134.801 44.9134 145.507 54.188 154.88C62.9694 163.661 72.9841 169.631 84.2321 172.788C88.8694 174.071 95.036 174.909 102.732 175.304V208.9M105.248 95.088C105.445 105.152 108.899 113.933 115.608 121.432C116.101 122.024 116.644 122.616 117.236 123.208C125.129 131.101 134.601 135.048 145.652 135.048C154.828 135.048 162.919 132.433 169.924 127.204M109.688 36.184L124.784 6.87999M169.924 127.204C166.569 137.465 160.797 146.691 152.608 154.88C146.984 160.504 130.704 178.067 103.768 207.568" stroke="#053361" stroke-width="8.88" stroke-linecap="round" stroke-linejoin="round"/>
<path d="M150.24 70.52C150.733 72 150.98 73.5294 150.98 75.108C150.98 78.66 149.747 81.62 147.28 83.988C144.813 86.5534 141.755 87.836 138.104 87.836C136.032 87.836 134.108 87.392 132.332 86.504C131.839 88.576 131.592 90.796 131.592 93.164C131.592 99.4787 133.171 104.856 136.328 109.296C139.584 113.736 143.481 115.956 148.02 115.956C152.559 115.956 156.407 113.736 159.564 109.296C162.82 104.856 164.448 99.4787 164.448 93.164C164.448 86.8494 162.82 81.4721 159.564 77.0321C158.577 75.7494 157.591 74.6147 156.604 73.628C154.631 71.9507 152.509 70.9147 150.24 70.52ZM49.8959 89.464C49.6986 90.648 49.6 91.8814 49.6 93.164C49.6 97.9 50.488 102.143 52.264 105.892C52.856 107.076 53.5466 108.211 54.3359 109.296C55.0266 110.283 55.7666 111.121 56.5559 111.812C59.3186 114.575 62.4759 115.956 66.0279 115.956C69.3826 115.956 72.3426 114.772 74.9079 112.404C75.1053 112.207 75.3026 112.009 75.5 111.812C76.1906 111.121 76.8813 110.283 77.572 109.296C80.828 104.856 82.4559 99.4787 82.4559 93.164C82.4559 86.8494 80.828 81.4721 77.572 77.0321C76.5853 75.7494 75.5986 74.6147 74.612 73.628C73.9213 73.036 73.1813 72.4934 72.392 72H72.244C72.4413 72.9867 72.54 74.0227 72.54 75.108C72.54 78.66 71.3066 81.62 68.84 83.988C67.952 84.9747 66.9653 85.764 65.88 86.356C64.0053 87.3427 61.9333 87.836 59.664 87.836C57.592 87.836 55.668 87.392 53.892 86.504C53.3 86.208 52.7573 85.912 52.264 85.616C51.7706 85.2214 51.3266 84.8267 50.932 84.4321C50.34 86.0107 49.9946 87.688 49.8959 89.464Z" fill="#0A61B7"/>
</g>
<defs>
<clipPath id="clip0">
<rect width="211" height="220" fill="white"/>
</clipPath>
</defs>
</svg>
