<svg width="20" height="20" viewBox="0 0 20 20" fill="none" xmlns="http://www.w3.org/2000/svg">
<path d="M10.0001 11.7947L4.03384 9.95837V11.765V13.0253C4.03384 14.4432 6.7059 15.5927 10.0018 15.5927C13.2976 15.5927 15.9701 14.4432 15.9701 13.0253C15.9701 13.0141 15.9665 13.0029 15.9662 12.992V9.95837L10.0001 11.7947Z" fill="#6D747A"/>
<path d="M0 7.84722L2.13141 8.60966L2.31305 8.22065L3.09607 8.15409L3.20772 8.27025L2.53581 8.42959L2.43788 8.71943C2.4377 8.71943 0.920153 11.892 1.14304 13.4441C1.14304 13.4441 2.09029 14.0091 3.03714 13.4441L3.28877 9.20061V8.84739L4.69821 8.52944L4.59867 8.77457L3.5478 9.1163L4.03383 9.28993L10 11.1262L15.9662 9.28993L20 7.84724L10 4L0 7.84722Z" fill="#6D747A"/>
</svg>
