<svg width="40" height="40" viewBox="0 0 40 40" fill="none" xmlns="http://www.w3.org/2000/svg">
<path d="M26.3681 38.9586C26.1598 39.029 25.9502 39.0972 25.7391 39.16C25.9509 39.0965 26.1598 39.0283 26.3681 38.9586Z" fill="#F0F1F2"/>
<path d="M27.413 38.5752C27.1882 38.6649 26.9633 38.7531 26.7344 38.8345C26.9633 38.7524 27.1889 38.6649 27.413 38.5752Z" fill="#F0F1F2"/>
<path d="M20 40C31.0457 40 40 31.0457 40 20C40 8.9543 31.0457 0 20 0C8.9543 0 0 8.9543 0 20C0 31.0457 8.9543 40 20 40Z" fill="#6D747A"/>
<path d="M25.3355 39.2745C25.1314 39.331 24.9259 39.3848 24.7183 39.4352C24.9259 39.3848 25.1314 39.331 25.3355 39.2745Z" fill="#F0F1F2"/>
<path d="M18.5509 39.9421C18.3068 39.9248 18.0633 39.9062 17.8226 39.88C18.064 39.9062 18.3075 39.9248 18.5509 39.9421Z" fill="#F0F1F2"/>
<path d="M15.2805 39.4345C15.0736 39.3841 14.8681 39.3304 14.6633 39.2738C14.8681 39.331 15.0736 39.3848 15.2805 39.4345Z" fill="#F0F1F2"/>
<path d="M17.4088 39.8276C17.1902 39.7993 16.9723 39.7697 16.7557 39.7345C16.9716 39.7697 17.1902 39.7986 17.4088 39.8276Z" fill="#F0F1F2"/>
<path d="M19.9997 40C19.6315 40 19.2666 39.9883 18.9032 39.969C19.2666 39.9883 19.6315 40 19.9997 40Z" fill="#F0F1F2"/>
<path d="M16.3288 39.6579C16.1192 39.6193 15.9102 39.5779 15.7033 39.5324C15.9102 39.5779 16.1192 39.6193 16.3288 39.6579Z" fill="#F0F1F2"/>
<path d="M12.2934 38.4593C11.9824 38.329 11.6748 38.1924 11.372 38.0476C11.6755 38.1924 11.9831 38.3297 12.2934 38.4593Z" fill="#F0F1F2"/>
<path d="M13.2648 38.8345C13.0366 38.7524 12.811 38.6649 12.5862 38.5752C12.811 38.6649 13.0366 38.7524 13.2648 38.8345Z" fill="#F0F1F2"/>
<path d="M21.0966 39.969C20.7331 39.9883 20.3683 40 20 40C20.3683 40 20.7331 39.9883 21.0966 39.969Z" fill="#F0F1F2"/>
<path d="M22.1771 39.88C21.9357 39.9062 21.6923 39.9248 21.4489 39.9421C21.6923 39.9248 21.9357 39.9062 22.1771 39.88Z" fill="#F0F1F2"/>
<path d="M24.297 39.5324C24.0894 39.5779 23.8811 39.6193 23.6715 39.6579C23.8804 39.6193 24.0894 39.5779 24.297 39.5324Z" fill="#F0F1F2"/>
<path d="M23.2444 39.7338C23.0279 39.769 22.8099 39.7987 22.5913 39.8269C22.8092 39.7987 23.0279 39.7697 23.2444 39.7338Z" fill="#F0F1F2"/>
<path d="M28.6234 38.049C28.322 38.1931 28.0158 38.3296 27.7061 38.4593C28.0158 38.3296 28.322 38.1938 28.6234 38.049Z" fill="#F0F1F2"/>
<path d="M14.2603 39.16C14.0486 39.0965 13.8396 39.0283 13.6313 38.9586C13.8396 39.0283 14.0486 39.0965 14.2603 39.16Z" fill="#F0F1F2"/>
<path d="M27.7062 38.4594C27.6096 38.5 27.511 38.5359 27.4138 38.5745C27.5103 38.5359 27.609 38.5 27.7062 38.4594Z" fill="#F0F1F2"/>
<path d="M28.6508 38.0366C28.6419 38.0407 28.6322 38.0448 28.6233 38.049C28.6322 38.0448 28.6419 38.0414 28.6508 38.0366Z" fill="#F0F1F2"/>
<path d="M15.7024 39.5324C15.5611 39.5014 15.4204 39.469 15.2804 39.4352C15.4204 39.469 15.5611 39.5014 15.7024 39.5324Z" fill="#F0F1F2"/>
<path d="M16.755 39.7338C16.6122 39.7104 16.4702 39.6842 16.3281 39.658C16.4709 39.6842 16.6122 39.7111 16.755 39.7338Z" fill="#F0F1F2"/>
<path d="M18.9031 39.969C18.7852 39.9628 18.6679 39.9504 18.5507 39.9421C18.6686 39.9504 18.7852 39.9628 18.9031 39.969Z" fill="#F0F1F2"/>
<path d="M17.8225 39.88C17.6838 39.8648 17.5466 39.8455 17.4087 39.8276C17.5466 39.8455 17.6838 39.8648 17.8225 39.88Z" fill="#F0F1F2"/>
<path d="M11.3729 38.0476C11.3653 38.0441 11.357 38.0407 11.3494 38.0372C11.357 38.0407 11.3653 38.0441 11.3729 38.0476Z" fill="#F0F1F2"/>
<path d="M21.4488 39.9421C21.3308 39.9504 21.2143 39.9628 21.0963 39.969C21.2143 39.9628 21.3308 39.9504 21.4488 39.9421Z" fill="#F0F1F2"/>
<path d="M25.7389 39.16C25.6051 39.2 25.4706 39.2373 25.3354 39.2745C25.4706 39.2373 25.6051 39.2 25.7389 39.16Z" fill="#F0F1F2"/>
<path d="M26.7348 38.8345C26.6134 38.8779 26.4907 38.9172 26.3686 38.9586C26.4907 38.9172 26.6134 38.8779 26.7348 38.8345Z" fill="#F0F1F2"/>
<path d="M12.5867 38.5752C12.4895 38.5366 12.3908 38.5 12.2943 38.46C12.3908 38.5 12.4895 38.5359 12.5867 38.5752Z" fill="#F0F1F2"/>
<path d="M13.6314 38.9586C13.5093 38.9172 13.3859 38.8779 13.2652 38.8345C13.3859 38.8779 13.5086 38.9172 13.6314 38.9586Z" fill="#F0F1F2"/>
<path d="M22.5907 39.8276C22.4528 39.8455 22.3156 39.8655 22.1769 39.88C22.3156 39.8648 22.4528 39.8455 22.5907 39.8276Z" fill="#F0F1F2"/>
<path d="M24.7192 39.4345C24.5792 39.4683 24.4385 39.5007 24.2971 39.5317C24.4385 39.5014 24.5792 39.469 24.7192 39.4345Z" fill="#F0F1F2"/>
<path d="M23.6707 39.658C23.5287 39.6842 23.3873 39.7111 23.2438 39.7338C23.3873 39.7111 23.5287 39.6842 23.6707 39.658Z" fill="#F0F1F2"/>
<path d="M14.6638 39.2745C14.5293 39.2373 14.3942 39.2 14.2604 39.16C14.3942 39.2 14.5287 39.2373 14.6638 39.2745Z" fill="#F0F1F2"/>
<path d="M24.5777 21.3752C26.806 19.8917 28.2757 17.36 28.2757 14.4828C28.2757 9.91243 24.5701 6.20691 19.9998 6.20691C15.4295 6.20691 11.7239 9.91243 11.7239 14.4828C11.7239 17.36 13.1936 19.8917 15.4219 21.3752C15.4219 21.3752 15.4226 21.3759 15.4232 21.3759C15.4226 21.3759 15.4226 21.3752 15.4226 21.3752C10.0888 22.9828 5.93566 27.3117 4.59842 32.7579L4.59911 32.7586C4.81704 33.0214 5.04325 33.2779 5.27428 33.5297C5.33014 33.591 5.38876 33.6497 5.44601 33.7097C5.62394 33.8986 5.80394 34.0848 5.98876 34.2669C6.06532 34.3421 6.14325 34.4145 6.22118 34.4883C6.39221 34.651 6.56532 34.8117 6.74187 34.9683C6.82945 35.0455 6.91842 35.1221 7.00669 35.1979C7.1798 35.3462 7.35497 35.4917 7.53359 35.6338C7.62738 35.709 7.72187 35.7828 7.81635 35.8566C7.99704 35.9959 8.18049 36.131 8.366 36.2635C8.46187 36.3317 8.55635 36.4014 8.65359 36.4683C8.84945 36.6035 9.04876 36.7331 9.24945 36.8614C9.3398 36.9186 9.42807 36.9779 9.51911 37.0345C9.75083 37.1773 9.9867 37.3138 10.2246 37.4476C10.2874 37.4828 10.3488 37.5207 10.4122 37.5552C10.7198 37.7235 11.0322 37.8848 11.3495 38.0373C11.357 38.0407 11.3653 38.0441 11.3729 38.0476C11.6757 38.1924 11.9832 38.3297 12.2943 38.4593C12.3908 38.5 12.4895 38.5359 12.5867 38.5745C12.8115 38.6641 13.0364 38.7524 13.2653 38.8338C13.3867 38.8773 13.5095 38.9166 13.6315 38.9579C13.8398 39.0283 14.0495 39.0966 14.2605 39.1593C14.3943 39.1993 14.5288 39.2366 14.6639 39.2738C14.8681 39.3304 15.0736 39.3841 15.2812 39.4345C15.4212 39.4683 15.5619 39.5007 15.7032 39.5317C15.9108 39.5773 16.1191 39.6186 16.3288 39.6572C16.4708 39.6835 16.6122 39.7104 16.7557 39.7331C16.9722 39.7683 17.1901 39.7979 17.4088 39.8262C17.5467 39.8442 17.6839 39.8642 17.8226 39.8786C18.0639 39.9048 18.3074 39.9235 18.5508 39.9407C18.6688 39.949 18.7853 39.9614 18.9032 39.9676C19.2667 39.9883 19.6315 40 19.9998 40C20.3681 40 20.7329 39.9883 21.0964 39.969C21.2143 39.9628 21.3315 39.9504 21.4488 39.9421C21.6929 39.9248 21.9364 39.9062 22.177 39.88C22.3157 39.8648 22.4529 39.8455 22.5908 39.8276C22.8095 39.7993 23.0274 39.7697 23.2439 39.7345C23.3867 39.711 23.5288 39.6848 23.6708 39.6586C23.8805 39.62 24.0895 39.5786 24.2964 39.5331C24.4377 39.5021 24.5784 39.4697 24.7184 39.4359C24.9253 39.3855 25.1308 39.3317 25.3357 39.2752C25.4701 39.2379 25.6053 39.2007 25.7391 39.1607C25.9508 39.0973 26.1598 39.029 26.3681 38.9593C26.4901 38.9179 26.6136 38.8786 26.7343 38.8352C26.9626 38.7531 27.1881 38.6655 27.4129 38.5759C27.5101 38.5373 27.6088 38.5007 27.7053 38.4607C28.015 38.331 28.3212 38.1952 28.6226 38.0504C28.6315 38.0462 28.6412 38.0421 28.6501 38.0379C28.9674 37.8855 29.2798 37.7241 29.5874 37.5559C29.6508 37.5214 29.7122 37.4835 29.775 37.4483C30.0129 37.3145 30.2488 37.1779 30.4805 37.0352C30.5715 36.9793 30.6605 36.92 30.7501 36.8621C30.9508 36.7338 31.1501 36.6035 31.346 36.469C31.4426 36.4021 31.5377 36.3331 31.6336 36.2641C31.8191 36.131 32.0026 35.9959 32.1832 35.8573C32.2784 35.7841 32.3722 35.7097 32.466 35.6345C32.6439 35.4924 32.8198 35.3469 32.9929 35.1986C33.0819 35.1228 33.1708 35.0462 33.2577 34.969C33.4343 34.8124 33.6074 34.6517 33.7784 34.489C33.8557 34.4152 33.9343 34.3421 34.0108 34.2676C34.1957 34.0855 34.3764 33.8993 34.5536 33.7104C34.6101 33.6497 34.6688 33.591 34.7253 33.5304C34.9564 33.2786 35.1826 33.0221 35.4005 32.7593L35.4012 32.7586C34.0646 27.3117 29.9115 22.9828 24.5777 21.3752Z" fill="#F0F1F2"/>
</svg>
