<svg width="200" height="200" viewBox="0 0 200 200" fill="none" xmlns="http://www.w3.org/2000/svg">
<path d="M92.5284 0.477066C87.5403 1.10847 78.5744 3.12895 73.7758 4.7706C69.6717 6.22282 61.8423 10.0112 59.2535 11.8423C58.3064 12.5368 57.233 13.1051 56.8542 13.1051C56.5385 13.1051 55.5283 13.7997 54.6443 14.6205C53.7603 15.4413 52.1187 16.7672 50.919 17.5249C49.7825 18.3457 47.5726 20.1768 45.9941 21.6922L43.1528 24.4072L25.663 24.5966L8.23627 24.786L6.59463 26.3014C4.44786 28.3219 4.44786 30.7212 6.72091 32.868L8.48883 34.5728H20.6117C27.3046 34.5728 32.7347 34.7622 32.7347 35.0147C32.7347 35.3304 31.8507 36.3407 30.7142 37.4141C25.7261 42.2758 22.3797 47.9585 19.8541 55.9141C18.5281 60.2077 18.2124 62.3544 18.2124 67.9739C18.2124 72.0149 18.5913 75.9927 19.1595 77.8869C19.6015 79.5917 20.3592 83.8221 20.6749 87.2948C21.8745 99.0389 23.9582 106.553 28.7568 116.339C37.5965 134.208 53.7603 148.604 73.2706 156.054C77.7536 157.759 88.8031 160.222 91.9601 160.222C96.0642 160.222 95.8748 159.275 95.8748 178.469C95.8748 193.812 96.0011 196.148 96.9482 197.474C98.4004 199.558 99.0318 200 101.052 200C103.073 200 104.651 198.421 112.607 188.319C119.174 179.921 121.32 177.333 124.604 173.481C125.993 171.839 128.013 169.44 129.023 168.114C130.097 166.788 133.128 162.937 135.843 159.653C138.494 156.307 141.904 152.077 143.419 150.246C144.872 148.414 148.092 145.257 150.554 143.174C159.394 135.85 164.192 130.167 170.443 119.686C174.989 112.046 178.588 101.122 179.851 91.1463C180.167 88.3682 180.925 82.7487 181.43 78.7077C181.935 74.6668 182.377 69.5524 182.377 67.3425C182.314 57.0507 177.894 46.2537 170.191 37.856L167.665 35.2042H179.22C188.817 35.2042 191.027 35.0147 192.479 34.1308C195.889 32.1103 196.394 28.0062 193.363 26.112C192.164 25.228 189.259 25.1017 175.305 25.1017H158.699L155.542 22.2604C144.556 12.2843 133.822 6.34911 120.815 3.00267C109.513 0.0982208 101.873 -0.596313 92.5284 0.477066ZM111.597 10.9583C115.259 11.4635 119.994 12.5368 122.078 13.2314C128.139 15.2519 139.505 21.1239 141.841 23.4601C142.788 24.4072 142.599 24.4703 139 24.4703C125.488 24.4703 111.092 31.984 103.452 43.0967L100.105 47.8322L99.2213 46.1274C96.2537 40.3817 90.1291 34.3202 82.8048 29.9635C78.0062 27.0591 68.4089 24.4703 62.6 24.4703C59.8849 24.4703 58.6853 24.2178 58.9378 23.7758C59.5692 22.8287 67.588 17.7775 69.4191 17.2092C70.2399 16.9566 71.8184 16.2621 72.8287 15.6307C75.5437 13.9891 83.3099 11.7791 89.5608 10.8952C97.0745 9.75867 103.767 9.75867 111.597 10.9583ZM71.2502 36.2144C76.4277 37.7298 81.0369 40.6342 85.4567 45.1172C88.74 48.4636 89.8765 50.1052 91.3919 54.1462C94.8646 63.049 95.4328 68.4159 93.6649 75.2982C90.5079 87.4211 81.4157 97.0184 70.2399 99.9228C65.3781 101.186 56.6016 101.122 52.245 99.8597C40.564 96.387 28.8831 83.6327 29.8934 75.4244C31.1562 65.2589 31.8507 62.165 33.9343 56.4824C35.2603 52.9465 37.5965 47.9585 39.1118 45.3697C41.7006 41.013 42.2057 40.5079 46.6255 38.2349C49.2142 36.909 52.9395 35.583 54.8337 35.2673C59.2535 34.4465 66.9566 34.9516 71.2502 36.2144ZM148.344 36.2144C154.216 37.9192 159.268 41.1393 161.414 44.4858C166.276 52.1889 170.317 65.4483 170.57 74.6668C170.759 79.718 168.107 85.2112 162.93 90.8307C152.259 102.385 134.769 104.595 121.447 96.0713C114.943 91.9672 110.776 87.0422 107.745 79.8443C105.977 75.8033 105.788 74.6036 105.725 68.6684C105.662 62.607 105.851 61.5967 107.745 56.7981C110.081 50.7366 111.281 48.9056 116.08 44.2963C119.805 40.6342 125.298 37.3509 129.907 36.0881C134.138 34.9516 144.177 35.0147 148.344 36.2144ZM100.926 89.5678C100.926 89.8836 101.81 91.2726 102.883 92.5986L104.778 94.9979L102.441 99.7966L100.105 104.532L98.0216 99.8597L96.0011 95.1242L97.8953 91.9672C99.7264 88.9996 100.926 88.0525 100.926 89.5678ZM34.6289 102.006C34.6289 103.143 43.0265 107.878 47.8883 109.52C52.687 111.099 54.1392 111.288 61.4634 111.288C68.7877 111.288 70.2399 111.099 74.9754 109.52C77.8799 108.51 81.8577 106.742 83.7519 105.542C87.0983 103.396 87.2246 103.332 88.298 104.469C88.8663 105.1 89.8765 106.995 90.5079 108.762C92.7178 114.761 95.938 121.012 97.327 122.022C99.0318 123.222 101.494 123.222 103.199 122.085C103.894 121.58 105.472 118.928 106.672 116.276C107.871 113.561 109.703 109.52 110.713 107.373L112.607 103.332L116.332 105.605C120.941 108.384 130.097 111.414 135.716 111.919C144.051 112.803 154.595 109.962 162.867 104.721C165.645 102.954 167.855 101.691 167.855 101.817C167.855 102.575 163.372 112.867 161.793 115.708C158.32 122.085 148.534 133.071 143.167 136.67C141.841 137.491 139.757 139.512 138.431 141.153C127.066 154.792 115.575 169.061 109.892 176.638C108.061 179.037 106.293 181.058 105.914 181.058C105.598 181.058 105.346 175.565 105.346 167.609C105.346 150.814 105.914 151.761 95.8117 151.13C85.5198 150.498 77.5642 148.288 67.7775 143.363C53.8235 136.292 39.9958 121.075 34.9446 107.121C33.1766 102.196 33.0504 101.501 33.9975 101.501C34.3763 101.501 34.6289 101.691 34.6289 102.006Z" fill="#053361"/>
<path d="M59.0641 48.2741C58.4327 48.4004 57.9907 48.7793 58.117 48.9687C58.2433 49.2212 59.1272 50.926 60.0744 52.8202C61.5266 55.5353 61.7791 56.6718 61.4634 58.6291C60.8952 61.8493 57.8013 66.0165 55.1494 67.1531C51.4241 68.6684 46.6255 68.1002 44.3525 65.8271C42.7108 64.1855 42.2057 64.7537 42.2057 68.3527C42.2057 72.6463 44.5419 78.1395 47.762 81.4859C55.402 89.3784 67.7774 89.631 75.6068 81.991C79.269 78.392 80.5318 76.119 81.4157 71.5097C83.1205 62.2913 77.7536 52.3783 69.4191 49.4107C66.6409 48.4636 60.7689 47.769 59.0641 48.2741Z" fill="#0A61B7"/>
<path d="M136.158 48.211C134.706 48.653 134.706 48.5898 136.6 51.368C138.747 54.525 138.81 59.9551 136.79 62.9858C134.58 66.206 132.307 67.595 128.581 67.9108C125.74 68.1002 124.856 67.9108 122.836 66.5217C121.51 65.6377 120.184 64.88 119.868 64.88C119.489 64.88 119.237 66.3954 119.237 68.2265C119.237 74.9193 124.288 82.433 131.107 85.9688C134.453 87.6736 141.146 87.9893 145.44 86.6634C149.86 85.2112 154.911 80.8545 157.121 76.4978C158.889 72.8357 159.52 66.8374 158.447 62.6701C157.121 57.3032 152.448 51.9363 147.208 49.6632C144.493 48.5267 138.052 47.6427 136.158 48.211Z" fill="#0A61B7"/>
</svg>
