<?xml version="1.0" standalone="no"?>
<!DOCTYPE svg PUBLIC "-//W3C//DTD SVG 20010904//EN"
 "http://www.w3.org/TR/2001/REC-SVG-20010904/DTD/svg10.dtd">
<svg version="1.0" xmlns="http://www.w3.org/2000/svg"
 width="10162.000000pt" height="4076.000000pt" viewBox="0 0 10162.000000 4076.000000"
 preserveAspectRatio="xMidYMid meet">
<metadata>
Created by potrace 1.16, written by Peter Selinger 2001-2019
</metadata>
<g transform="translate(0.000000,4076.000000) scale(0.100000,-0.100000)"
fill="#000000" stroke="none">
<path d="M4000 32835 l0 -3415 3415 0 3415 0 0 3415 0 3415 -3415 0 -3415 0 0
-3415z"/>
<path d="M11990 32835 l0 -3415 3415 0 3415 0 0 3415 0 3415 -3415 0 -3415 0
0 -3415z"/>
<path d="M19990 32835 l0 -3415 3415 0 3415 0 0 3415 0 3415 -3415 0 -3415 0
0 -3415z"/>
<path d="M4000 24835 l0 -3415 3415 0 3415 0 0 3415 0 3415 -3415 0 -3415 0 0
-3415z"/>
<path d="M11990 24835 l0 -3415 1645 0 1646 0 422 231 c232 128 514 282 627
344 254 139 879 482 1135 623 105 57 359 197 565 309 206 113 468 257 583 320
l207 115 0 2444 0 2444 -3415 0 -3415 0 0 -3415z"/>
<path d="M19990 26130 c0 -1166 2 -2120 5 -2120 2 0 161 86 352 192 192 105
416 228 498 273 83 45 443 243 800 440 358 197 718 395 800 440 83 45 443 243
800 440 358 197 718 395 800 440 83 45 443 243 800 440 358 197 722 397 810
445 88 49 385 212 660 363 l500 276 3 245 2 246 -3415 0 -3415 0 0 -2120z"/>
<path d="M92810 22763 c-285 -29 -562 -108 -802 -228 -732 -366 -1140 -1084
-1228 -2160 -5 -66 -10 -249 -10 -407 l0 -288 -440 0 -440 0 0 -435 0 -435
438 -2 437 -3 0 -2723 0 -2722 572 0 573 0 2 2723 3 2722 758 3 757 2 0 435 0
435 -766 0 -767 0 6 353 c6 361 16 485 57 702 108 564 362 915 762 1051 138
47 228 59 433 58 232 -1 388 -25 580 -89 71 -24 132 -39 135 -35 11 17 142
858 136 869 -12 19 -281 100 -432 130 -82 17 -201 35 -264 40 -106 10 -419 13
-500 4z"/>
<path d="M79985 22293 c-118 -8 -374 -45 -505 -73 -458 -97 -872 -286 -1204
-550 -462 -367 -761 -908 -825 -1492 -14 -125 -14 -401 0 -526 105 -967 835
-1692 2224 -2212 920 -344 1369 -651 1594 -1092 162 -319 194 -745 85 -1126
-33 -117 -129 -310 -201 -407 -129 -173 -329 -335 -538 -435 -323 -155 -673
-219 -1140 -207 -653 17 -1294 197 -1835 516 -46 27 -86 49 -87 47 -1 -1 -45
-139 -98 -306 -53 -168 -118 -375 -145 -461 -28 -86 -50 -162 -50 -171 0 -20
186 -125 355 -199 401 -175 879 -295 1440 -361 147 -17 760 -17 915 0 726 80
1281 287 1715 638 439 355 718 820 830 1379 39 198 48 321 42 587 -9 403 -71
685 -217 983 -247 506 -697 905 -1428 1266 -188 93 -303 143 -647 281 -461
186 -753 328 -980 475 -403 263 -615 553 -679 928 -75 434 37 821 323 1118
229 238 507 372 915 443 124 22 544 30 718 14 458 -41 876 -157 1225 -340
l112 -59 15 42 c16 43 296 878 296 882 0 2 -60 32 -132 68 -380 186 -879 307
-1428 346 -133 10 -546 12 -665 4z"/>
<path d="M31320 22209 c-596 -24 -1142 -71 -1590 -137 l-185 -27 -3 -4343 -2
-4342 980 0 980 0 0 1580 c0 869 2 1580 5 1580 3 0 44 -7 92 -15 141 -23 340
-35 592 -35 1045 1 1921 235 2569 687 618 430 961 1035 1069 1878 27 218 25
681 -5 874 -161 1031 -793 1750 -1832 2086 -293 94 -614 155 -1065 202 -176
18 -1260 27 -1605 12z m1271 -1509 c396 -39 720 -168 934 -371 188 -179 300
-403 341 -679 22 -150 15 -422 -14 -555 -87 -401 -328 -710 -697 -894 -242
-120 -482 -179 -816 -200 -200 -13 -598 2 -739 27 l-95 17 -3 1298 -2 1297 25
10 c35 13 221 39 355 49 167 12 591 13 711 1z"/>
<path d="M95105 21015 l-550 -173 -3 -581 -2 -581 -490 0 -490 0 0 -435 0
-435 490 0 490 0 0 -1802 c0 -1100 4 -1865 10 -1963 21 -327 62 -570 136 -793
86 -263 187 -436 348 -598 207 -206 480 -341 821 -405 141 -27 478 -37 662
-20 247 23 450 61 655 122 l71 21 -7 91 c-3 51 -15 245 -27 432 -11 187 -22
341 -24 344 -2 2 -35 -4 -72 -14 -131 -33 -250 -46 -473 -51 -244 -7 -338 5
-473 56 -248 94 -409 335 -471 705 -33 198 -36 347 -36 2111 l0 1764 825 0
825 0 0 435 0 435 -825 0 -825 0 0 755 c0 415 -3 755 -7 754 -5 0 -255 -78
-558 -174z"/>
<path d="M4000 17740 c0 -1380 3 -2510 6 -2510 4 0 75 38 158 84 83 46 358
197 611 336 253 139 548 301 655 360 107 59 517 284 910 500 393 215 753 413
800 440 47 26 162 89 255 140 94 51 301 165 460 253 295 162 590 324 860 472
83 46 308 169 500 275 193 106 625 343 960 527 336 184 620 341 633 349 l22
14 0 635 0 635 -3415 0 -3415 0 0 -2510z"/>
<path d="M11990 19934 c0 -292 1 -316 17 -310 16 6 259 138 858 466 143 78
267 146 275 151 9 5 -237 9 -567 9 l-583 0 0 -316z"/>
<path d="M62880 19894 c-376 -32 -658 -89 -935 -188 -249 -90 -575 -267 -779
-424 -798 -613 -1276 -1663 -1276 -2801 0 -1132 405 -2038 1163 -2604 435
-325 994 -532 1647 -612 664 -80 1574 -18 2253 155 264 67 647 199 647 224 0
6 -57 307 -127 669 -93 481 -131 657 -141 657 -7 0 -61 -16 -120 -35 -618
-199 -1493 -284 -2070 -200 -712 104 -1195 465 -1327 989 -12 50 -26 118 -30
150 l-7 59 2056 -7 c1665 -5 2057 -4 2061 6 5 17 32 233 46 383 16 161 16 639
0 800 -18 185 -47 378 -83 540 -169 781 -571 1421 -1128 1795 -346 232 -731
369 -1200 426 -118 14 -552 26 -650 18z m435 -1348 c345 -90 591 -336 720
-719 45 -135 85 -362 85 -489 l0 -48 -1175 0 -1175 0 0 24 c0 50 42 242 76
345 75 227 188 424 331 572 109 113 192 176 308 233 189 92 310 117 555 112
150 -3 190 -7 275 -30z"/>
<path d="M39965 19879 c-519 -51 -1007 -356 -1320 -825 -69 -102 -185 -331
-225 -442 -21 -57 -25 -63 -49 -60 l-26 3 -26 405 c-15 223 -32 489 -39 593
l-13 187 -848 0 -848 0 4 -27 c7 -43 24 -416 35 -763 12 -361 14 -3418 4
-4717 l-7 -873 991 0 991 0 4 1728 c3 1882 1 1795 59 2017 133 504 512 827
1068 911 136 20 424 20 590 -1 69 -9 149 -18 178 -22 l52 -6 0 931 0 930 -66
12 c-162 28 -351 35 -509 19z"/>
<path d="M43995 19883 c-38 -2 -142 -10 -230 -19 -774 -76 -1438 -351 -1946
-807 -515 -462 -853 -1109 -974 -1862 -41 -256 -50 -376 -50 -680 0 -307 10
-443 50 -682 218 -1295 1090 -2222 2366 -2517 324 -75 601 -101 979 -93 377 8
668 51 990 146 1119 331 1890 1134 2165 2256 78 320 108 588 109 970 0 349
-21 566 -84 850 -141 633 -437 1174 -866 1585 -630 602 -1495 896 -2509 853z
m245 -1423 c140 -15 242 -44 365 -105 415 -205 679 -684 771 -1400 24 -184 24
-608 0 -804 -117 -962 -572 -1511 -1251 -1511 -473 0 -839 250 -1069 730 -218
457 -289 1123 -185 1745 71 422 225 773 443 1003 216 228 455 333 801 350 17
1 73 -3 125 -8z"/>
<path d="M50717 19879 c-687 -53 -1315 -357 -1791 -868 -486 -522 -766 -1172
-868 -2016 -21 -176 -18 -793 5 -970 102 -783 387 -1407 857 -1875 140 -139
216 -202 383 -314 719 -485 1737 -560 2471 -183 248 127 494 329 645 530 24
32 49 56 55 54 15 -5 13 -572 -3 -697 -56 -447 -214 -782 -479 -1014 -325
-284 -785 -411 -1357 -376 -547 34 -1054 169 -1529 407 -70 35 -129 63 -131
61 -2 -2 -24 -84 -50 -183 -25 -99 -62 -238 -80 -310 -161 -618 -255 -988
-255 -1000 0 -30 331 -175 570 -249 913 -282 2127 -323 3009 -102 1307 329
2007 1135 2210 2546 59 413 61 481 61 2775 0 2309 6 2718 46 3518 l7 127 -862
0 -861 0 0 -24 c0 -27 -46 -576 -56 -668 -4 -37 -11 -58 -19 -58 -7 0 -44 44
-81 98 -100 142 -329 368 -468 460 -390 261 -877 373 -1429 331z m773 -1499
c232 -30 426 -120 586 -272 198 -187 333 -456 369 -737 24 -181 17 -1389 -8
-1529 -92 -504 -412 -849 -877 -948 -114 -24 -333 -24 -451 -1 -242 48 -417
143 -594 321 -254 255 -398 590 -456 1061 -18 145 -15 512 5 668 55 430 186
765 395 1017 260 314 643 470 1031 420z"/>
<path d="M59073 19879 c-673 -65 -1257 -530 -1534 -1222 -40 -100 -45 -108
-69 -105 l-25 3 -21 325 c-12 179 -30 445 -40 593 l-17 267 -849 0 -849 0 5
-32 c8 -47 24 -390 37 -768 12 -361 14 -2991 3 -4592 l-7 -988 991 0 991 0 4
1728 c3 1882 1 1796 59 2017 146 550 592 889 1216 923 160 9 360 0 520 -22 62
-9 122 -16 132 -16 20 0 20 12 20 929 l0 929 -66 12 c-162 28 -342 35 -501 19z"/>
<path d="M68961 19879 c-943 -60 -1689 -456 -2081 -1104 -279 -461 -347 -1091
-169 -1550 87 -224 206 -401 394 -591 306 -307 699 -533 1265 -729 755 -260
951 -395 992 -684 21 -153 -23 -312 -111 -400 -143 -143 -364 -205 -731 -205
-197 0 -290 8 -500 45 -379 67 -792 202 -1088 354 -78 40 -125 59 -127 52 -8
-22 -345 -1381 -345 -1390 0 -11 194 -103 343 -161 143 -56 439 -145 602 -179
355 -76 627 -107 1000 -114 560 -11 988 43 1400 177 911 297 1431 939 1462
1805 23 636 -202 1140 -676 1518 -217 173 -566 356 -906 478 -269 95 -506 184
-615 231 -285 122 -445 240 -513 377 -31 63 -32 70 -32 186 0 120 0 122 38
197 112 227 414 337 850 308 345 -23 762 -130 1112 -285 70 -31 129 -54 132
-51 3 3 81 306 173 675 l167 670 -56 27 c-158 75 -410 161 -636 218 -433 108
-912 153 -1344 125z"/>
<path d="M74370 19884 c-781 -52 -1346 -263 -1788 -666 -371 -339 -578 -765
-623 -1278 -44 -521 127 -965 517 -1340 317 -305 693 -511 1329 -730 661 -227
857 -369 897 -649 22 -160 -24 -315 -122 -411 -187 -182 -639 -244 -1161 -160
-383 63 -806 195 -1117 351 -91 45 -155 72 -158 65 -8 -25 -344 -1377 -344
-1387 0 -15 220 -117 383 -178 382 -142 843 -237 1322 -272 181 -13 691 -7
850 10 822 90 1428 359 1809 802 309 359 461 810 443 1314 -18 505 -178 888
-506 1215 -278 276 -654 487 -1216 681 -83 28 -224 80 -315 116 -413 163 -594
281 -673 442 -31 63 -32 71 -32 186 0 120 0 122 38 197 112 229 416 338 849
308 373 -26 795 -138 1161 -307 42 -20 80 -34 83 -31 7 7 334 1311 334 1332 0
19 -69 55 -214 111 -359 138 -749 227 -1166 264 -125 12 -492 21 -580 15z"/>
<path d="M86153 19805 c-1345 -140 -2335 -1000 -2669 -2318 -124 -489 -155
-1076 -83 -1586 116 -826 465 -1499 1030 -1985 533 -458 1207 -696 1971 -696
1117 1 2105 535 2643 1430 168 281 286 566 370 899 137 547 157 1245 50 1802
-167 870 -609 1557 -1285 2001 -134 88 -409 224 -570 282 -212 75 -439 129
-680 162 -162 22 -607 27 -777 9z m673 -879 c258 -55 506 -171 694 -326 432
-357 713 -934 807 -1658 25 -191 24 -621 0 -814 -45 -345 -129 -643 -257 -915
-282 -594 -740 -982 -1305 -1103 -75 -16 -149 -23 -295 -27 -171 -5 -211 -2
-325 17 -229 39 -461 129 -645 252 -104 70 -150 108 -259 212 -378 367 -617
896 -698 1550 -20 161 -23 580 -5 746 124 1144 710 1920 1562 2069 168 29 166
29 395 26 179 -3 228 -7 331 -29z"/>
<path d="M72805 8964 c-305 -46 -522 -230 -589 -499 -22 -85 -36 -287 -36
-501 l0 -184 -220 0 -220 0 0 -190 0 -190 220 0 220 0 0 -1290 0 -1290 250 0
250 0 2 1288 3 1287 288 3 287 2 0 190 0 190 -287 2 -288 3 -3 140 c-3 161 10
307 35 386 23 73 98 149 170 173 100 33 304 38 471 10 23 -3 42 -3 42 2 0 5
16 101 35 214 19 112 35 207 35 211 0 4 -48 14 -107 24 -104 17 -483 30 -558
19z"/>
<path d="M76140 8671 l-245 -147 -5 -369 -5 -369 -182 3 c-147 2 -183 0 -184
-11 0 -7 -1 -94 -1 -193 l0 -180 186 -3 185 -2 4 -1048 c4 -1141 4 -1143 62
-1270 28 -62 117 -158 186 -203 113 -72 295 -106 508 -96 111 6 299 31 310 42
3 4 -27 227 -50 371 l-10 60 -172 0 c-171 -1 -172 -1 -220 27 -60 35 -93 85
-106 161 -7 40 -11 378 -11 1008 l0 948 255 0 255 0 -2 193 -3 192 -250 0
-250 0 -5 517 -5 516 -245 -147z"/>
<path d="M28475 7839 c-171 -23 -313 -81 -445 -180 -71 -54 -111 -94 -229
-229 l-30 -35 -1 193 0 192 -225 0 -225 0 0 -2050 0 -2050 250 0 250 0 0 721
0 722 85 -82 c140 -134 276 -212 455 -258 77 -20 121 -25 230 -26 213 -2 359
32 555 129 402 198 646 572 731 1119 23 152 23 480 0 630 -44 282 -122 500
-252 698 -167 255 -436 435 -738 492 -101 20 -318 27 -411 14z m310 -413 c196
-63 366 -218 465 -421 87 -178 118 -329 126 -615 15 -488 -87 -818 -319 -1030
-146 -133 -297 -192 -492 -193 -121 0 -201 19 -310 72 -251 124 -404 365 -461
728 -23 147 -23 478 0 624 52 333 196 590 414 738 144 97 231 122 402 117 76
-3 144 -11 175 -20z"/>
<path d="M33620 7835 c-183 -41 -306 -149 -459 -400 l-61 -99 0 222 0 222
-225 0 -225 0 0 -1480 0 -1480 250 0 250 0 0 854 c0 714 3 874 15 973 16 121
53 282 82 356 31 81 103 176 170 227 87 66 156 91 268 97 106 6 214 -16 321
-67 36 -18 67 -30 68 -28 1 1 39 100 85 218 45 118 85 220 87 226 6 14 -72 60
-165 99 -152 63 -339 88 -461 60z"/>
<path d="M37734 7840 c-332 -38 -614 -169 -825 -381 -211 -212 -327 -475 -380
-859 -16 -112 -16 -470 0 -590 37 -291 111 -504 243 -701 189 -283 497 -474
863 -535 133 -23 397 -23 520 -1 447 81 806 339 980 704 171 357 206 1010 79
1433 -146 483 -533 827 -1029 914 -108 19 -352 28 -451 16z m275 -410 c270
-34 495 -192 625 -440 95 -182 126 -324 133 -609 6 -245 -5 -368 -47 -536 -49
-196 -122 -327 -251 -451 -116 -112 -222 -171 -374 -209 -102 -26 -294 -23
-400 4 -290 77 -505 292 -599 601 -50 165 -60 255 -60 510 0 269 13 369 70
540 51 154 103 238 214 351 138 140 263 206 440 234 108 17 146 17 249 5z"/>
<path d="M42955 7839 c-607 -75 -1010 -539 -1101 -1269 -27 -219 -13 -501 35
-702 65 -272 209 -543 381 -718 205 -209 457 -314 780 -327 337 -14 586 78
813 298 44 44 82 79 85 79 7 0 -9 -418 -19 -510 -20 -171 -72 -301 -163 -410
-136 -162 -312 -235 -591 -247 -240 -10 -411 27 -550 117 -107 71 -165 161
-195 303 -6 31 -16 57 -23 57 -6 0 -112 14 -235 30 -143 20 -227 27 -231 21
-10 -16 6 -202 22 -267 81 -314 314 -524 692 -623 204 -54 575 -66 788 -27
276 52 483 153 656 320 173 168 255 333 301 605 42 251 43 285 47 1774 l4
1437 -228 -2 -228 -3 1 -172 c0 -95 -1 -173 -3 -173 -2 0 -45 42 -96 93 -153
155 -315 248 -520 297 -98 24 -306 33 -422 19z m405 -430 c108 -29 219 -93
306 -173 91 -84 142 -150 194 -255 181 -363 166 -1042 -31 -1378 -73 -125
-244 -270 -383 -325 -162 -64 -385 -63 -557 1 -123 47 -269 165 -352 286 -134
196 -201 543 -176 920 22 347 113 574 297 746 163 152 326 214 537 203 50 -2
124 -13 165 -25z"/>
<path d="M48323 7835 c-185 -40 -335 -176 -484 -440 l-34 -60 -3 223 -2 222
-225 0 -225 0 0 -1480 0 -1480 250 0 249 0 4 898 c3 872 4 900 25 1012 61 321
144 460 331 553 l84 42 121 0 c129 0 198 -16 309 -72 27 -13 51 -23 52 -21 2
2 43 104 90 228 98 254 98 227 -5 280 -85 43 -193 79 -287 95 -103 18 -167 18
-250 0z"/>
<path d="M52455 7841 c-326 -38 -589 -162 -800 -376 -103 -104 -168 -195 -235
-330 -115 -230 -165 -447 -177 -765 -23 -616 157 -1071 536 -1355 92 -69 246
-150 351 -184 324 -104 753 -102 1055 6 291 105 524 315 665 602 39 79 106
258 99 265 -10 10 -502 67 -509 59 -5 -4 -20 -37 -35 -73 -77 -186 -224 -362
-360 -432 -245 -126 -549 -125 -796 3 -180 93 -322 256 -403 463 -36 89 -74
260 -82 364 l-7 82 1107 0 1106 0 0 123 c0 501 -130 889 -390 1161 -187 196
-406 315 -675 367 -113 22 -343 32 -450 20z m275 -411 c109 -14 178 -34 264
-76 137 -69 266 -191 329 -312 60 -115 117 -323 117 -424 l0 -38 -830 0 c-797
0 -830 1 -830 18 0 46 35 214 57 277 108 301 344 503 643 550 108 17 146 17
250 5z"/>
<path d="M57535 7841 c-289 -34 -515 -127 -674 -275 -159 -150 -242 -344 -244
-566 -1 -179 46 -324 147 -457 136 -180 337 -277 866 -419 585 -158 654 -182
735 -256 63 -58 94 -118 102 -201 6 -73 -15 -170 -52 -232 -62 -107 -200 -204
-340 -240 -159 -40 -401 -39 -569 4 -243 63 -417 253 -467 511 -7 36 -14 66
-14 68 -2 3 -487 -76 -491 -81 -7 -7 47 -202 78 -280 62 -153 114 -233 228
-347 119 -119 199 -170 354 -225 128 -46 262 -72 436 -86 380 -28 716 46 970
217 134 90 270 259 328 409 55 141 70 341 38 495 -29 140 -118 286 -231 380
-137 114 -318 182 -942 354 -457 127 -509 147 -595 224 -21 19 -51 56 -66 81
-24 41 -27 56 -27 136 0 108 19 151 99 230 90 87 194 125 396 146 185 18 361
-4 486 -61 48 -21 86 -50 138 -102 79 -80 116 -146 143 -254 14 -58 19 -65 37
-61 12 3 121 18 244 33 191 24 222 30 222 45 0 30 -49 206 -76 274 -34 84
-108 198 -165 251 -135 128 -348 222 -597 265 -129 21 -390 32 -497 20z"/>
<path d="M62530 7839 c-107 -12 -262 -49 -362 -87 -344 -133 -548 -414 -548
-757 0 -246 116 -475 307 -606 120 -83 373 -177 725 -270 453 -119 620 -174
696 -230 97 -71 141 -184 121 -311 -26 -164 -155 -305 -336 -366 -92 -32 -184
-44 -328 -45 -279 -1 -459 63 -597 212 -77 83 -130 187 -159 309 -12 48 -22
88 -23 89 -4 4 -478 -75 -483 -81 -3 -3 0 -29 7 -58 115 -492 392 -764 867
-852 207 -39 454 -42 658 -11 441 69 762 312 876 665 41 124 51 292 25 421
-45 221 -191 404 -404 505 -107 51 -386 141 -722 234 -518 143 -574 164 -657
246 -62 62 -87 122 -87 209 -1 91 32 162 109 234 88 84 189 121 383 142 278
30 518 -33 645 -170 60 -65 111 -161 130 -247 13 -56 16 -59 43 -57 68 4 450
56 455 62 9 9 -18 129 -51 226 -83 244 -222 385 -485 492 -231 94 -523 131
-805 102z"/>
<path d="M67766 7840 c-277 -32 -488 -116 -706 -280 -188 -143 -333 -353 -415
-605 -122 -373 -126 -901 -9 -1283 123 -404 426 -717 819 -845 573 -188 1248
-6 1579 426 191 249 274 529 292 980 22 541 -120 958 -423 1248 -43 41 -104
94 -135 117 -141 104 -360 195 -548 226 -117 20 -347 28 -454 16z m313 -415
c165 -27 296 -92 418 -209 158 -150 237 -304 290 -571 25 -128 26 -538 0 -675
-66 -355 -225 -593 -482 -723 -170 -85 -412 -106 -605 -51 -221 64 -434 260
-529 488 -75 180 -106 392 -98 679 5 225 26 359 77 500 131 357 416 567 785
576 28 0 92 -6 144 -14z"/>
<path d="M84300 7840 c-462 -58 -818 -298 -995 -673 -130 -274 -182 -562 -172
-951 12 -503 133 -833 401 -1101 247 -246 537 -358 931 -358 112 0 188 5 255
18 439 83 770 375 909 801 38 116 69 250 60 258 -3 3 -460 66 -480 66 -4 0
-12 -30 -18 -66 -18 -98 -58 -219 -104 -309 -58 -115 -174 -228 -288 -284
-113 -54 -199 -73 -334 -73 -216 0 -379 61 -524 198 -209 196 -295 471 -294
944 0 445 88 719 291 911 133 126 266 187 457 210 254 30 484 -64 618 -253 59
-84 89 -145 122 -250 15 -49 33 -88 39 -88 7 0 113 14 236 30 123 17 225 30
228 30 10 0 -12 100 -40 185 -62 184 -146 324 -269 445 -159 158 -349 254
-584 295 -111 19 -345 27 -445 15z"/>
<path d="M89314 7840 c-241 -27 -454 -102 -628 -219 -326 -220 -503 -524 -573
-981 -21 -141 -24 -507 -5 -650 28 -206 97 -430 178 -579 120 -219 330 -417
556 -524 325 -155 765 -176 1123 -55 387 131 672 407 803 778 105 300 132 796
61 1149 -58 289 -171 505 -368 702 -254 254 -542 372 -936 384 -77 2 -172 0
-211 -5z m283 -411 c172 -23 315 -93 445 -217 229 -219 318 -503 305 -971 -6
-230 -29 -365 -86 -521 -136 -373 -487 -593 -873 -550 -187 21 -331 88 -465
214 -217 205 -312 483 -313 911 0 190 12 303 45 443 46 193 119 330 242 455
188 192 430 273 700 236z"/>
<path d="M94795 7839 c-152 -20 -316 -82 -446 -169 -81 -55 -208 -177 -256
-248 l-38 -54 -3 206 -2 206 -225 0 -225 0 0 -1480 0 -1480 249 0 249 0 5 893
c4 899 6 945 43 1127 45 220 167 391 344 484 111 58 179 77 311 83 301 15 461
-99 535 -382 17 -65 18 -140 21 -1137 l4 -1068 249 0 249 0 4 953 c4 1034 3
1015 61 1185 63 184 177 308 359 392 123 57 321 76 456 45 135 -32 261 -127
315 -237 61 -126 60 -91 63 -1265 l4 -1073 250 0 250 0 -4 1138 -3 1137 -27
110 c-17 72 -44 146 -78 215 -45 90 -65 117 -138 190 -136 136 -296 206 -528
231 -281 30 -545 -37 -754 -191 -76 -57 -220 -203 -268 -274 l-34 -48 -37 78
c-70 149 -172 256 -320 337 -156 86 -411 124 -635 96z"/>
<path d="M4616 7073 c117 -390 318 -1056 445 -1480 l233 -773 266 0 265 0 42
158 c23 86 132 501 243 922 111 421 215 815 231 875 16 61 41 157 56 214 20
79 28 100 35 85 4 -10 39 -147 77 -304 38 -157 144 -568 236 -915 91 -346 178
-673 191 -725 41 -156 65 -243 75 -277 l11 -33 253 0 253 0 10 28 c6 15 81
250 167 522 86 272 187 592 225 710 37 118 84 267 104 330 20 63 125 396 234
740 l198 625 -239 3 c-132 1 -241 1 -243 -1 -2 -2 -157 -514 -345 -1138 -187
-624 -342 -1135 -343 -1137 -2 -1 -31 107 -65 240 -35 134 -146 563 -247 953
-102 391 -203 780 -225 865 -22 85 -45 170 -50 188 l-11 32 -252 0 -253 0
-108 -402 c-59 -222 -164 -610 -232 -863 -68 -253 -159 -597 -204 -765 -44
-167 -82 -306 -83 -308 -2 -1 -14 34 -26 80 -67 253 -251 929 -421 1551 l-193
707 -261 0 -262 0 213 -707z"/>
<path d="M10680 7773 c0 -5 88 -298 195 -653 107 -355 306 -1017 442 -1472
l248 -828 268 0 c147 0 267 3 267 6 0 3 27 106 59 228 33 121 166 626 296
1121 131 495 240 904 243 909 3 5 29 -92 59 -215 53 -223 81 -330 239 -929 45
-173 128 -488 184 -700 55 -212 103 -393 106 -402 5 -17 26 -18 262 -18 l257
0 102 323 c91 291 239 757 678 2147 81 256 150 471 152 478 4 9 -48 12 -239
12 l-244 0 -10 -35 c-32 -123 -670 -2235 -675 -2235 -5 0 -146 540 -503 1917
l-91 353 -256 0 -255 0 -17 -67 c-9 -38 -50 -192 -91 -343 -80 -297 -229 -853
-252 -937 -8 -29 -20 -77 -28 -105 -8 -29 -62 -233 -120 -453 -58 -220 -110
-408 -114 -418 -5 -13 -18 20 -41 110 -19 70 -156 578 -306 1128 -150 550
-278 1019 -284 1043 l-12 42 -259 0 c-143 0 -260 -3 -260 -7z"/>
<path d="M16950 7776 c0 -3 11 -40 24 -83 24 -75 204 -674 627 -2083 110 -366
209 -693 220 -727 l21 -63 264 0 263 0 15 53 c8 28 72 268 141 532 69 264 146
554 170 645 24 91 94 356 155 590 62 234 115 431 119 438 4 7 36 -106 71 -250
34 -145 100 -402 145 -573 174 -656 375 -1422 375 -1428 0 -4 116 -7 258 -7
l259 0 25 83 c15 45 69 217 121 382 177 557 348 1098 503 1590 86 270 184 580
220 691 35 110 64 204 64 208 0 3 -109 5 -242 4 l-242 -3 -237 -790 c-131
-434 -284 -944 -340 -1132 -57 -189 -105 -343 -108 -343 -3 0 -30 93 -59 208
-58 227 -321 1241 -382 1472 -21 80 -64 245 -96 368 l-57 222 -253 0 -253 0
-15 -52 c-26 -91 -461 -1710 -537 -2000 -40 -153 -76 -278 -79 -278 -3 0 -17
46 -33 103 -87 324 -183 679 -382 1407 l-222 815 -261 3 c-144 1 -262 0 -262
-2z"/>
<path d="M23730 5105 l0 -285 285 0 285 0 0 285 0 285 -285 0 -285 0 0 -285z"/>
<path d="M79680 5105 l0 -285 285 0 285 0 0 285 0 285 -285 0 -285 0 0 -285z"/>
</g>
</svg>
